<?xml version="1.0" encoding="utf-8"?>
<svg id="master-artboard" viewBox="0 0 1058.216796875 676.3854370117188" version="1.1" xmlns="http://www.w3.org/2000/svg" x="0px" y="0px" width="1058.216796875px" height="676.3854370117188px" style="enable-background:new 0 0 1400 980;"><rect id="ee-background" x="0" y="0" width="1058.216796875" height="676.3854370117188" style="fill: white; fill-opacity: 0; pointer-events: none;"/>



<path d="M 389.513611 282.360413 H 1010.486389 V 852.804932 H 389.513611 V 282.360413 Z" class="st2" style="fill: rgb(95, 110, 125);" transform="matrix(1, 0, 0, 1, -168.2891845703125, -220.33738708496094)"/>
<path d="M 389.513611 282.360413 H 1010.486389 V 296.179812 H 389.513611 V 282.360413 Z" class="st3" style="fill: rgb(88, 103, 117);" transform="matrix(1, 0, 0, 1, -168.2891845703125, -220.33738708496094)"/>
<path d="M 444.322906 314.097107 H 955.677094 V 468.927307 H 444.322906 V 314.097107 Z" class="st1" style="fill: rgb(83, 97, 110);" transform="matrix(1, 0, 0, 1, -168.2891845703125, -220.33738708496094)"/>
<path d="M 444.322906 499.352386 H 955.677094 V 654.182587 H 444.322906 V 499.352386 Z" class="st1" style="fill: rgb(83, 97, 110);" transform="matrix(1, 0, 0, 1, -168.2891845703125, -220.33738708496094)"/>
<path d="M 444.322906 684.607727 H 955.677094 V 839.437927 H 444.322906 V 684.607727 Z" class="st1" style="fill: rgb(83, 97, 110);" transform="matrix(1, 0, 0, 1, -168.2891845703125, -220.33738708496094)"/>
<path class="st2" d="M352.2325,262.4998L352.2325,262.4998c0-12.5477,10.1719-22.7196,22.7195-22.7196h650.0959&#10;&#9;c12.5476,0,22.7195,10.1719,22.7195,22.7195v0.0001c0,12.5476-10.1719,22.7195-22.7195,22.7195H374.952&#10;&#9;C362.4044,285.2193,352.2325,275.0474,352.2325,262.4998z" style="fill: rgb(95, 110, 125);" transform="matrix(1, 0, 0, 1, -168.2891845703125, -220.33738708496094)"/>
<g transform="matrix(1, 0, 0, 1, -168.2891845703125, -220.33738708496094)">
	<path class="st4" d="M919.514,355.5183c0-7.4537,0-28.0287,0-28.0287h-18.0667c0,0,0,18.4349,0,28.0287&#10;&#9;&#9;c0,14.3035-16.1368,32.008-16.1368,46.0742c0,28.058,0,65.746,0,65.746h16.1368h18.0667h16.1368c0,0,0-36.0882,0-65.746&#10;&#9;&#9;C935.6508,387.5263,919.514,368.542,919.514,355.5183z" style="fill: rgb(76, 89, 102);"/>
	<path d="M 885.310486 412.376495 H 935.650787 V 437.973295 H 885.310486 V 412.376495 Z" class="st5" style="fill: rgb(101, 117, 133);"/>
	<path class="st0" d="M919.6566,357.6634c-0.0876-0.7299-0.1426-1.4476-0.1426-2.1451c0-3.7771,0-10.9214,0-17.0526h-18.0667&#10;&#9;&#9;c0,5.6941,0,12.4079,0,17.0526c0,0.7062-0.0497,1.423-0.1246,2.1451H919.6566z" style="fill: rgb(59, 71, 82);"/>
</g>
<g transform="matrix(1, 0, 0, 1, -168.2891845703125, -220.33738708496094)">
	<path class="st4" d="M849.7216,355.5183c0-7.4537,0-28.0287,0-28.0287h-18.0667c0,0,0,18.4349,0,28.0287&#10;&#9;&#9;c0,14.3035-16.1368,32.008-16.1368,46.0742c0,28.058,0,65.746,0,65.746h16.1368h18.0667h16.1368c0,0,0-36.0882,0-65.746&#10;&#9;&#9;C865.8584,387.5263,849.7216,368.542,849.7216,355.5183z" style="fill: rgb(76, 89, 102);"/>
	<path d="M 815.518127 412.376495 H 865.858429 V 437.973295 H 815.518127 V 412.376495 Z" class="st5" style="fill: rgb(101, 117, 133);"/>
	<path class="st0" d="M849.8642,357.6634c-0.0876-0.7299-0.1426-1.4476-0.1426-2.1451c0-3.7771,0-10.9214,0-17.0526h-18.0667&#10;&#9;&#9;c0,5.6941,0,12.4079,0,17.0526c0,0.7062-0.0497,1.423-0.1246,2.1451H849.8642z" style="fill: rgb(59, 71, 82);"/>
</g>
<g transform="matrix(1, 0, 0, 1, -168.2891845703125, -220.33738708496094)">
	<path class="st4" d="M780.6255,355.5183c0-7.4537,0-28.0287,0-28.0287h-18.0667c0,0,0,18.4349,0,28.0287&#10;&#9;&#9;c0,14.3035-16.1368,32.008-16.1368,46.0742c0,28.058,0,65.746,0,65.746h16.1368h18.0667h16.1368c0,0,0-36.0882,0-65.746&#10;&#9;&#9;C796.7623,387.5263,780.6255,368.542,780.6255,355.5183z" style="fill: rgb(76, 89, 102);"/>
	<path d="M 746.421997 412.376495 H 796.762299 V 437.973295 H 746.421997 V 412.376495 Z" class="st5" style="fill: rgb(101, 117, 133);"/>
	<path class="st0" d="M780.7681,357.6634c-0.0876-0.7299-0.1426-1.4476-0.1426-2.1451c0-3.7771,0-10.9214,0-17.0526h-18.0667&#10;&#9;&#9;c0,5.6941,0,12.4079,0,17.0526c0,0.7062-0.0497,1.423-0.1246,2.1451H780.7681z" style="fill: rgb(59, 71, 82);"/>
</g>
<g transform="matrix(1, 0, 0, 1, -168.2891845703125, -220.33738708496094)">
	<path class="st4" d="M919.514,543.7332c0-7.4537,0-28.0286,0-28.0286h-18.0667c0,0,0,18.4349,0,28.0286&#10;&#9;&#9;c0,14.3035-16.1368,32.008-16.1368,46.0742c0,28.058,0,65.746,0,65.746h16.1368h18.0667h16.1368c0,0,0-36.0881,0-65.746&#10;&#9;&#9;C935.6508,575.7412,919.514,556.7569,919.514,543.7332z" style="fill: rgb(76, 89, 102);"/>
	<path d="M 885.310486 600.59137 H 935.650787 V 626.188169 H 885.310486 V 600.59137 Z" class="st5" style="fill: rgb(101, 117, 133);"/>
	<path class="st0" d="M919.6566,545.8783c-0.0876-0.7299-0.1426-1.4476-0.1426-2.1451c0-3.7771,0-10.9214,0-17.0526h-18.0667&#10;&#9;&#9;c0,5.6941,0,12.4079,0,17.0526c0,0.7062-0.0497,1.423-0.1246,2.1451H919.6566z" style="fill: rgb(59, 71, 82);"/>
</g>
<g transform="matrix(1, 0, 0, 1, -168.2891845703125, -220.33738708496094)">
	<path class="st4" d="M849.7216,543.7332c0-7.4537,0-28.0286,0-28.0286h-18.0667c0,0,0,18.4349,0,28.0286&#10;&#9;&#9;c0,14.3035-16.1368,32.008-16.1368,46.0742c0,28.058,0,65.746,0,65.746h16.1368h18.0667h16.1368c0,0,0-36.0881,0-65.746&#10;&#9;&#9;C865.8584,575.7412,849.7216,556.7569,849.7216,543.7332z" style="fill: rgb(76, 89, 102);"/>
	<path d="M 815.518127 600.59137 H 865.858429 V 626.188169 H 815.518127 V 600.59137 Z" class="st5" style="fill: rgb(101, 117, 133);"/>
	<path class="st0" d="M849.8642,545.8783c-0.0876-0.7299-0.1426-1.4476-0.1426-2.1451c0-3.7771,0-10.9214,0-17.0526h-18.0667&#10;&#9;&#9;c0,5.6941,0,12.4079,0,17.0526c0,0.7062-0.0497,1.423-0.1246,2.1451H849.8642z" style="fill: rgb(59, 71, 82);"/>
</g>
<g transform="matrix(1, 0, 0, 1, -168.2891845703125, -220.33738708496094)">
	<path class="st4" d="M621.514,355.5183c0-7.4537,0-28.0287,0-28.0287h-18.0667c0,0,0,18.4349,0,28.0287&#10;&#9;&#9;c0,14.3035-16.1368,32.008-16.1368,46.0742c0,28.058,0,65.746,0,65.746h16.1368h18.0667h16.1368c0,0,0-36.0882,0-65.746&#10;&#9;&#9;C637.6508,387.5263,621.514,368.542,621.514,355.5183z" style="fill: rgb(76, 89, 102);"/>
	<path d="M 587.310486 412.376495 H 637.650787 V 437.973295 H 587.310486 V 412.376495 Z" class="st5" style="fill: rgb(101, 117, 133);"/>
	<path class="st0" d="M621.6566,357.6634c-0.0876-0.7299-0.1426-1.4476-0.1426-2.1451c0-3.7771,0-10.9214,0-17.0526h-18.0667&#10;&#9;&#9;c0,5.6941,0,12.4079,0,17.0526c0,0.7062-0.0497,1.423-0.1246,2.1451H621.6566z" style="fill: rgb(59, 71, 82);"/>
</g>
<g transform="matrix(1, 0, 0, 1, -168.2891845703125, -220.33738708496094)">
	<path class="st4" d="M504.8624,355.5183c0-7.4537,0-28.0287,0-28.0287h-18.0667c0,0,0,18.4349,0,28.0287&#10;&#9;&#9;c0,14.3035-16.1368,32.008-16.1368,46.0742c0,28.058,0,65.746,0,65.746h16.1368h18.0667h16.1368c0,0,0-36.0882,0-65.746&#10;&#9;&#9;C520.9992,387.5263,504.8624,368.542,504.8624,355.5183z" style="fill: rgb(76, 89, 102);"/>
	<path d="M 470.658905 412.376495 H 520.999207 V 437.973295 H 470.658905 V 412.376495 Z" class="st5" style="fill: rgb(101, 117, 133);"/>
	<path class="st0" d="M505.0049,357.6634c-0.0876-0.7299-0.1425-1.4476-0.1425-2.1451c0-3.7771,0-10.9214,0-17.0526h-18.0667&#10;&#9;&#9;c0,5.6941,0,12.4079,0,17.0526c0,0.7062-0.0498,1.423-0.1246,2.1451H505.0049z" style="fill: rgb(59, 71, 82);"/>
</g>
<g transform="matrix(1, 0, 0, 1, -168.2891845703125, -220.33738708496094)">
	<path class="st4" d="M489.8685,723.9352c0-7.4537,0-28.0286,0-28.0286h-18.0667c0,0,0,18.4349,0,28.0286&#10;&#9;&#9;c0,14.3035-16.1368,32.008-16.1368,46.0742c0,28.058,0,65.746,0,65.746h16.1368h18.0667h16.1368c0,0,0-36.0881,0-65.746&#10;&#9;&#9;C506.0053,755.9432,489.8685,736.9589,489.8685,723.9352z" style="fill: rgb(76, 89, 102);"/>
	<path d="M 455.665009 780.793274 H 506.00531 V 806.390074 H 455.665009 V 780.793274 Z" class="st5" style="fill: rgb(101, 117, 133);"/>
	<path class="st0" d="M490.0111,726.0802c-0.0876-0.7299-0.1426-1.4476-0.1426-2.145c0-3.7771,0-10.9214,0-17.0526h-18.0667&#10;&#9;&#9;c0,5.694,0,12.4079,0,17.0526c0,0.7062-0.0497,1.423-0.1246,2.145H490.0111z" style="fill: rgb(59, 71, 82);"/>
</g>
<g transform="matrix(1, 0, 0, 1, -168.2891845703125, -220.33738708496094)">
	<path class="st4" d="M561.4697,723.9352c0-7.4537,0-28.0286,0-28.0286h-18.0668c0,0,0,18.4349,0,28.0286&#10;&#9;&#9;c0,14.3035-16.1368,32.008-16.1368,46.0742c0,28.058,0,65.746,0,65.746h16.1368h18.0668h16.1368c0,0,0-36.0881,0-65.746&#10;&#9;&#9;C577.6064,755.9432,561.4697,736.9589,561.4697,723.9352z" style="fill: rgb(76, 89, 102);"/>
	<path d="M 527.266113 780.793274 H 577.606415 V 806.390074 H 527.266113 V 780.793274 Z" class="st5" style="fill: rgb(101, 117, 133);"/>
	<path class="st0" d="M561.6122,726.0802c-0.0875-0.7299-0.1425-1.4476-0.1425-2.145c0-3.7771,0-10.9214,0-17.0526h-18.0668&#10;&#9;&#9;c0,5.694,0,12.4079,0,17.0526c0,0.7062-0.0497,1.423-0.1246,2.145H561.6122z" style="fill: rgb(59, 71, 82);"/>
</g>
<g transform="matrix(1, 0, 0, 1, -168.2891845703125, -220.33738708496094)">
	<path class="st4" d="M935.5262,723.9352c0-7.4537,0-28.0286,0-28.0286h-18.0667c0,0,0,18.4349,0,28.0286&#10;&#9;&#9;c0,14.3035-16.1368,32.008-16.1368,46.0742c0,28.058,0,65.746,0,65.746h16.1368h18.0667h16.1368c0,0,0-36.0881,0-65.746&#10;&#9;&#9;C951.663,755.9432,935.5262,736.9589,935.5262,723.9352z" style="fill: rgb(76, 89, 102);"/>
	<path d="M 901.322693 780.793274 H 951.662994 V 806.390074 H 901.322693 V 780.793274 Z" class="st5" style="fill: rgb(101, 117, 133);"/>
	<path class="st0" d="M935.6688,726.0802c-0.0876-0.7299-0.1426-1.4476-0.1426-2.145c0-3.7771,0-10.9214,0-17.0526h-18.0667&#10;&#9;&#9;c0,5.694,0,12.4079,0,17.0526c0,0.7062-0.0497,1.423-0.1246,2.145H935.6688z" style="fill: rgb(59, 71, 82);"/>
</g>
<g transform="matrix(1, 0, 0, 1, -168.2891845703125, -220.33738708496094)">
	<path class="st4" d="M1045.0173,628.3458c0-9.0342,0-33.9717,0-33.9717h-21.8974c0,0,0,22.3438,0,33.9717&#10;&#9;&#9;c0,17.3363-19.5583,38.7947-19.5583,55.8434c0,34.0073,0,79.6863,0,79.6863h19.5583h21.8974h19.5583c0,0,0-43.74,0-79.6863&#10;&#9;&#9;C1064.5757,667.1405,1045.0173,644.1309,1045.0173,628.3458z" style="fill: rgb(76, 89, 102);"/>
	<path d="M 1003.561584 697.259827 H 1064.575684 V 728.284027 H 1003.561584 V 697.259827 Z" class="st5" style="fill: rgb(101, 117, 133);"/>
	<path class="st0" d="M1045.1902,630.9457c-0.1062-0.8847-0.1729-1.7546-0.1729-2.5999c0-4.578,0-13.2372,0-20.6683h-21.8974&#10;&#9;&#9;c0,6.9014,0,15.0388,0,20.6683c0,0.856-0.0603,1.7247-0.151,2.5999H1045.1902z" style="fill: rgb(59, 71, 82);"/>
</g>
<g transform="matrix(1, 0, 0, 1, -168.2891845703125, -220.33738708496094)">
	<path class="st4" d="M385.8403,628.3458c0-9.0342,0-33.9717,0-33.9717h-21.8975c0,0,0,22.3438,0,33.9717&#10;&#9;&#9;c0,17.3363-19.5583,38.7947-19.5583,55.8434c0,34.0073,0,79.6863,0,79.6863h19.5583h21.8975h19.5583c0,0,0-43.74,0-79.6863&#10;&#9;&#9;C405.3986,667.1405,385.8403,644.1309,385.8403,628.3458z" style="fill: rgb(76, 89, 102);"/>
	<path d="M 344.384491 697.259827 H 405.39859 V 728.284027 H 344.384491 V 697.259827 Z" class="st5" style="fill: rgb(101, 117, 133);"/>
	<path class="st0" d="M386.0131,630.9457c-0.1061-0.8847-0.1728-1.7546-0.1728-2.5999c0-4.578,0-13.2372,0-20.6683h-21.8975&#10;&#9;&#9;c0,6.9014,0,15.0388,0,20.6683c0,0.856-0.0603,1.7247-0.151,2.5999H386.0131z" style="fill: rgb(59, 71, 82);"/>
</g>
<path class="st4" d="M1106.2043,633.494L1106.2043,633.494c-0.052-0.4341-0.0941-0.8646-0.1239-1.2903&#10;&#9;c-0.0283-0.441-0.049-0.8791-0.049-1.3096c0-4.578,0-13.2372,0-20.6683c0-7.2335,0-13.3033,0-13.3033h-21.8973&#10;&#9;c0,0,0,5.9498,0,13.3033c0,6.9014,0,15.0388,0,20.6683c0,0.4468-0.021,0.8981-0.0463,1.3503&#10;&#9;c-0.0262,0.4147-0.0615,0.8312-0.1049,1.2496l0,0c-1.7455,16.8475-19.4073,37.0367-19.4073,53.2435c0,4.2139,0,8.6074,0,13.0706&#10;&#9;c0,10.4246,0,21.225,0,31.0241c0,19.8635,0,35.5916,0,35.5916h19.5585h21.8973h19.5583c0,0,0-15.4814,0-35.5916&#10;&#9;c0-9.6733,0-20.4158,0-31.0241c0-4.4091,0-8.7954,0-13.0706C1125.5898,670.6017,1108.0807,649.1304,1106.2043,633.494z" style="fill: rgb(76, 89, 102);" transform="matrix(1, 0, 0, 1, -168.2891845703125, -220.33738708496094)"/>
<path class="st4" d="M300.675,633.494L300.675,633.494c-0.0521-0.4341-0.0941-0.8646-0.1239-1.2903&#10;&#9;c-0.0283-0.441-0.0489-0.8791-0.0489-1.3096c0-4.578,0-13.2372,0-20.6683c0-7.2335,0-13.3033,0-13.3033h-21.8974&#10;&#9;c0,0,0,5.9498,0,13.3033c0,6.9014,0,15.0388,0,20.6683c0,0.4468-0.0209,0.8981-0.0463,1.3503&#10;&#9;c-0.0262,0.4147-0.0615,0.8312-0.1048,1.2496l0,0c-1.7455,16.8475-19.4073,37.0367-19.4073,53.2435c0,4.2139,0,8.6074,0,13.0706&#10;&#9;c0,10.4246,0,21.225,0,31.0241c0,19.8635,0,35.5916,0,35.5916h19.5584h21.8974h19.5584c0,0,0-15.4814,0-35.5916&#10;&#9;c0-9.6733,0-20.4158,0-31.0241c0-4.4091,0-8.7954,0-13.0706C320.0605,670.6017,302.5513,649.1304,300.675,633.494z" style="fill: rgb(76, 89, 102);" transform="matrix(1, 0, 0, 1, -168.2891845703125, -220.33738708496094)"/>
<path class="st5" d="M1075.6973,630.9457L1075.6973,630.9457c-0.052-0.4341-0.0941-0.8646-0.1239-1.2903&#10;&#9;c-0.0283-0.4409-0.049-0.8791-0.049-1.3095c0-4.5781,0-13.2372,0-20.6683c0-7.2335,0-13.3033,0-13.3033h-21.8973&#10;&#9;c0,0,0,5.9498,0,13.3033c0,6.9014,0,15.0388,0,20.6683c0,0.4468-0.021,0.8981-0.0463,1.3502&#10;&#9;c-0.0262,0.4147-0.0615,0.8313-0.1049,1.2496l0,0c-1.7455,16.8475-19.4073,37.0367-19.4073,53.2435c0,4.2139,0,8.6074,0,13.0706&#10;&#9;c0,10.4246,0,21.225,0,31.0241c0,19.8635,0,35.5916,0,35.5916h19.5585h21.8973h19.5583c0,0,0-15.4814,0-35.5916&#10;&#9;c0-9.6733,0-20.4158,0-31.0241c0-4.409,0-8.7953,0-13.0706C1095.0828,668.0534,1077.5736,646.582,1075.6973,630.9457z" style="fill: rgb(101, 117, 133);" transform="matrix(1, 0, 0, 1, -168.2891845703125, -220.33738708496094)"/>
<g transform="matrix(1, 0, 0, 1, -168.2891845703125, -220.33738708496094)">
	<path class="st6" d="M990.9281,628.3458c0-9.0342,0-33.9717,0-33.9717h-21.8975c0,0,0,22.3438,0,33.9717&#10;&#9;&#9;c0,17.3363-19.5583,38.7947-19.5583,55.8434c0,34.0073,0,79.6863,0,79.6863h19.5583h21.8975h19.5583c0,0,0-43.74,0-79.6863&#10;&#9;&#9;C1010.4864,667.1405,990.9281,644.1309,990.9281,628.3458z" style="fill: rgb(72, 52, 28);"/>
	<path class="st7" d="M970.2614,649.9055c-0.2759,0-0.5572-0.0552-0.8277-0.1736c-1.0457-0.4576-1.5222-1.6756-1.0646-2.7227&#10;&#9;&#9;c0.8627-1.9717,1.5787-3.767,2.191-5.487c0.3809-1.0767,1.5639-1.6406,2.6392-1.2557c1.0767,0.3822,1.6379,1.5639,1.2557,2.6392&#10;&#9;&#9;c-0.6447,1.8142-1.3956,3.6984-2.2987,5.7615C971.8172,649.4425,971.0582,649.9055,970.2614,649.9055z" style="fill: rgb(113, 84, 56);"/>
	<path class="st7" d="M955.6765,686.2567c-1.1413,0-2.0672-0.926-2.0672-2.0673c0-7.5017,4.7145-16.8163,9.2728-25.824&#10;&#9;&#9;c0.5168-1.0161,1.7604-1.4266,2.7778-0.9098c1.0188,0.5155,1.4266,1.759,0.9111,2.7778&#10;&#9;&#9;c-4.3403,8.5744-8.8274,17.4408-8.8274,23.956C957.7437,685.3307,956.8178,686.2567,955.6765,686.2567z" style="fill: rgb(113, 84, 56);"/>
	<path d="M 949.47229 697.259827 H 1010.486389 V 728.284027 H 949.47229 V 697.259827 Z" class="st8" style="fill: rgb(154, 149, 117);"/>
	<path class="st9" d="M991.1009,630.9457c-0.1061-0.8847-0.1728-1.7546-0.1728-2.5999c0-4.578,0-13.2372,0-20.6683h-21.8975&#10;&#9;&#9;c0,6.9014,0,15.0388,0,20.6683c0,0.856-0.0604,1.7247-0.1511,2.5999H991.1009z" style="fill: rgb(132, 28, 34);"/>
</g>
<g transform="matrix(1, 0, 0, 1, -168.2891845703125, -220.33738708496094)">
	<path class="st6" d="M355.3115,628.3458c0-9.0342,0-33.9717,0-33.9717H333.414c0,0,0,22.3438,0,33.9717&#10;&#9;&#9;c0,17.3363-19.5583,38.7947-19.5583,55.8434c0,34.0073,0,79.6863,0,79.6863h19.5583h21.8975h19.5583c0,0,0-43.74,0-79.6863&#10;&#9;&#9;C374.8698,667.1405,355.3115,644.1309,355.3115,628.3458z" style="fill: rgb(72, 52, 28);"/>
	<path class="st7" d="M334.6447,649.9055c-0.2766,0-0.5579-0.0552-0.8277-0.1736c-1.0457-0.4576-1.5228-1.6769-1.0646-2.7227&#10;&#9;&#9;c0.8627-1.9703,1.5793-3.7657,2.1904-5.487c0.3816-1.0753,1.5619-1.6379,2.6399-1.257c1.076,0.3822,1.6386,1.5639,1.2563,2.6406&#10;&#9;&#9;c-0.6447,1.8156-1.3963,3.6997-2.2994,5.7615C336.1998,649.4438,335.4407,649.9055,334.6447,649.9055z" style="fill: rgb(113, 84, 56);"/>
	<path class="st7" d="M320.0605,686.2567c-1.142,0-2.0672-0.926-2.0672-2.0673c0-7.5017,4.7132-16.8163,9.2715-25.8226&#10;&#9;&#9;c0.5155-1.0202,1.7604-1.4293,2.7778-0.9112c1.0188,0.5155,1.4266,1.759,0.9111,2.7778c-4.339,8.5744-8.826,17.4408-8.826,23.956&#10;&#9;&#9;C322.1277,685.3307,321.2024,686.2567,320.0605,686.2567z" style="fill: rgb(113, 84, 56);"/>
	<path d="M 313.855713 697.259827 H 374.869812 V 728.284027 H 313.855713 V 697.259827 Z" class="st8" style="fill: rgb(154, 149, 117);"/>
	<path class="st9" d="M355.4842,630.9457c-0.1061-0.8847-0.1728-1.7546-0.1728-2.5999c0-4.578,0-13.2372,0-20.6683H333.414&#10;&#9;&#9;c0,6.9014,0,15.0388,0,20.6683c0,0.856-0.0603,1.7247-0.151,2.5999H355.4842z" style="fill: rgb(132, 28, 34);"/>
</g>
<g transform="matrix(1, 0, 0, 1, -168.2891845703125, -220.33738708496094)">
	<path class="st10" d="M621.824,587.8958c-3.9683,0-7.999-0.7833-11.8798-2.4387L473.0296,527.067&#10;&#9;&#9;c-15.4025-6.5684-22.5637-24.3799-15.9947-39.7824c6.5677-15.4032,24.3799-22.5657,39.7824-15.9947L633.7321,529.68&#10;&#9;&#9;c15.4025,6.5684,22.5637,24.3799,15.9946,39.7824C644.813,580.9842,633.6055,587.8958,621.824,587.8958z" style="fill: rgb(57, 110, 189);"/>
	<path class="st11" d="M506.7195,542.2535c-4.4184,0-8.9088-0.8728-13.2296-2.7153l-21.8114-9.3018&#10;&#9;&#9;c-17.1528-7.3154-25.1282-27.1504-17.8129-44.3032c7.3153-17.1534,27.151-25.1249,44.3031-17.8129l21.8114,9.3018&#10;&#9;&#9;c17.1528,7.3153,25.1282,27.1504,17.8129,44.3031C532.3207,534.558,519.8408,542.2535,506.7195,542.2535z" style="fill: rgb(138, 198, 221);"/>
	<path class="st10" d="M845.2353,682.6068c-11.6133,0-22.6949-6.7103-27.719-18.006&#10;&#9;&#9;c-23.5482-52.9495-46.5662-77.4459-55.5429-80.4484c-15.8796-5.3127-24.4459-22.4924-19.1339-38.372&#10;&#9;&#9;c5.312-15.8796,22.4877-24.4479,38.3713-19.1339c42.2325,14.1273,75.5879,77.0576,91.7111,113.312&#10;&#9;&#9;c6.8046,15.3008-0.0821,33.2194-15.3817,40.024C853.5364,681.7629,849.3522,682.6068,845.2353,682.6068z" style="fill: rgb(57, 110, 189);"/>
	<path class="st10" d="M805.6209,596.6747l-4.4101,76.7626c-12.7065-3.4454-22.0503-15.0631-22.0503-28.8583v-32.6069&#10;&#9;&#9;c0-4.4145-3.5787-7.9932-7.9932-7.9932H628.8464c-4.4221,0-8.007,3.5848-8.007,8.007v32.5931&#10;&#9;&#9;c0,13.7952-9.3438,25.413-22.0503,28.8583l-4.4101-76.7626c0-46.6639,37.83-84.494,84.494-84.494h42.2539&#10;&#9;&#9;C767.7909,512.1807,805.6209,550.0108,805.6209,596.6747z" style="fill: rgb(57, 109, 189);"/>
	<g>
		<path class="st12" d="M697.9111,555.4438c9.0377,7.4034,34.6428,16.2876,42.9401,8.1438&#10;&#9;&#9;&#9;c8.2972-8.1438,14.9604-55.1557-28.72-64.0399C707.6892,522.4984,697.9111,555.4438,697.9111,555.4438z" style="fill: rgb(142, 205, 232);"/>
		<path class="st12" d="M702.0889,555.4438c-9.0377,7.4034-34.6428,16.2876-42.9401,8.1438&#10;&#9;&#9;&#9;c-8.2972-8.1438-14.9604-55.1557,28.72-64.0399C692.3108,522.4984,702.0889,555.4438,702.0889,555.4438z" style="fill: rgb(142, 205, 232);"/>
	</g>
	<g>
		<path class="st13" d="M700.2016,555.3987L700.2016,555.3987c-18.0309,0-32.6479-14.617-32.6479-32.6479v-44.6075h65.2958v44.6075&#10;&#9;&#9;&#9;C732.8495,540.7817,718.2325,555.3987,700.2016,555.3987z" style="fill: rgb(252, 190, 133);"/>
		<path class="st14" d="M667.5537,514.5626c3.8884,3.5053,9.0228,5.6505,14.6726,5.6505h35.9506&#10;&#9;&#9;&#9;c5.6498,0,10.7842-2.1452,14.6726-5.6505v-36.4192h-65.2958V514.5626z" style="fill: rgb(249, 158, 75);"/>
		<g>
			<g>
				<path class="st15" d="M770.0488,300.8769h24.0945v103.8358c0,13.307-10.7875,24.0945-24.0945,24.0945l0,0V300.8769z" style="fill: rgb(246, 137, 91);"/>
				<path class="st15" d="M606.2599,300.8769h24.0945v127.9302l0,0c-13.307,0-24.0945-10.7875-24.0945-24.0945V300.8769z" style="fill: rgb(246, 137, 91);"/>
			</g>
			<g>
				<g>
					<path class="st13" d="M791.2733,372.4955h-33.3214V406.82h33.3214c9.4785,0,17.1623-7.6839,17.1623-17.1623v-0.0001&#10;&#9;&#9;&#9;&#9;&#9;&#9;C808.4355,380.1792,800.7518,372.4955,791.2733,372.4955z" style="fill: rgb(252, 190, 133);"/>
					<path class="st14" d="M783.3564,382.5878h-17.3271v17.8488h17.3271c4.9288,0,8.9244-3.9956,8.9244-8.9244v0&#10;&#9;&#9;&#9;&#9;&#9;&#9;C792.2808,386.5834,788.2852,382.5878,783.3564,382.5878z" style="fill: rgb(249, 158, 75);"/>
				</g>
				<g>
					<path class="st13" d="M609.1299,372.4955h33.3214V406.82h-33.3214c-9.4785,0-17.1623-7.6839-17.1623-17.1623v-0.0001&#10;&#9;&#9;&#9;&#9;&#9;&#9;C591.9677,380.1792,599.6514,372.4955,609.1299,372.4955z" style="fill: rgb(252, 190, 133);"/>
					<path class="st14" d="M617.0468,382.5878h17.3271v17.8488h-17.3271c-4.9288,0-8.9244-3.9956-8.9244-8.9244v0&#10;&#9;&#9;&#9;&#9;&#9;&#9;C608.1224,386.5834,612.118,382.5878,617.0468,382.5878z" style="fill: rgb(249, 158, 75);"/>
				</g>
			</g>
			<path class="st13" d="M620.4603,313.3066v134.4319c0,29.4655,23.8866,53.3521,53.3521,53.3521h52.7784&#10;&#9;&#9;&#9;&#9;c29.4655,0,53.3521-23.8865,53.3521-53.3521V313.3066H620.4603z" style="fill: rgb(252, 190, 133);"/>
			<path class="st14" d="M726.5908,491.6581h-52.7783c-29.4656,0-53.3521-23.8865-53.3521-53.3521v9.4324&#10;&#9;&#9;&#9;&#9;c0,29.4655,23.8865,53.3521,53.3521,53.3521h52.7783c29.4655,0,53.3521-23.8865,53.3521-53.3521v-9.4324&#10;&#9;&#9;&#9;&#9;C779.9428,467.7715,756.0563,491.6581,726.5908,491.6581z" style="fill: rgb(249, 158, 75);"/>
			<g>
				<g>
					<path d="M 669.940092 391.231415 A 11.4736 11.4736 0 0 1 658.466492 402.705015 A 11.4736 11.4736 0 0 1 646.992891 391.231415 A 11.4736 11.4736 0 0 1 658.466492 379.757814 A 11.4736 11.4736 0 0 1 669.940092 391.231415 Z" class="st16" style="fill: rgb(51, 62, 72);"/>
					<path class="st17" d="M677.5374,369.9843c-0.9883,0-1.9933-0.1972-2.9581-0.6151c-10.2399-4.4315-21.9858-4.4315-32.2257,0&#10;&#9;&#9;&#9;&#9;&#9;&#9;c-3.7821,1.6342-8.171-0.1031-9.8063-3.8824c-1.6359-3.7799,0.1025-8.1704,3.8824-9.8063&#10;&#9;&#9;&#9;&#9;&#9;&#9;c14.0047-6.0606,30.0688-6.0606,44.0735,0c3.7799,1.6359,5.5183,6.0264,3.8824,9.8063&#10;&#9;&#9;&#9;&#9;&#9;&#9;C683.1672,368.302,680.4214,369.9843,677.5374,369.9843z" style="fill: rgb(216, 100, 53);"/>
					<path class="st18" d="M658.4665,403.837c-5.2454,0-10.4904-0.4124-15.6988-1.2375c-1.5648-0.2477-2.632-1.7171-2.3844-3.2819&#10;&#9;&#9;&#9;&#9;&#9;&#9;c0.2482-1.5647,1.7183-2.6342,3.2819-2.3843c9.822,1.5563,19.7807,1.5563,29.6027,0c1.567-0.2493,3.0336,0.8196,3.2818,2.3843&#10;&#9;&#9;&#9;&#9;&#9;&#9;c0.2476,1.5647-0.8196,3.0342-2.3843,3.2819C668.9568,403.4246,663.712,403.837,658.4665,403.837z" style="fill: rgb(250, 169, 97);"/>
				</g>
				<g>
					<path d="M 753.410185 391.231415 A 11.4736 11.4736 0 0 1 741.936584 402.705015 A 11.4736 11.4736 0 0 1 730.462984 391.231415 A 11.4736 11.4736 0 0 1 741.936584 379.757814 A 11.4736 11.4736 0 0 1 753.410185 391.231415 Z" class="st16" style="fill: rgb(51, 62, 72);"/>
					<path class="st17" d="M761.0081,369.9843c-0.9894,0-1.9933-0.1972-2.958-0.6151c-10.2411-4.4315-21.9858-4.4315-32.2269,0&#10;&#9;&#9;&#9;&#9;&#9;&#9;c-3.7816,1.6342-8.1704-0.1031-9.8063-3.8824c-1.6359-3.7799,0.1031-8.1704,3.8835-9.8063&#10;&#9;&#9;&#9;&#9;&#9;&#9;c14.0035-6.0606,30.0688-6.0606,44.0723,0c3.7805,1.6359,5.5194,6.0264,3.8835,9.8063&#10;&#9;&#9;&#9;&#9;&#9;&#9;C766.6373,368.302,763.8911,369.9843,761.0081,369.9843z" style="fill: rgb(216, 100, 53);"/>
					<path class="st18" d="M741.9366,403.837c-5.2449,0-10.4909-0.4124-15.7-1.2375c-1.5641-0.2477-2.632-1.7171-2.3832-3.2819&#10;&#9;&#9;&#9;&#9;&#9;&#9;c0.2465-1.5647,1.7087-2.632,3.2818-2.3843c9.8198,1.5563,19.783,1.5563,29.6027,0c1.5686-0.2465,3.0353,0.8196,3.2818,2.3843&#10;&#9;&#9;&#9;&#9;&#9;&#9;c0.2488,1.5647-0.819,3.0342-2.3832,3.2819C752.4276,403.4246,747.1816,403.837,741.9366,403.837z" style="fill: rgb(250, 169, 97);"/>
				</g>
			</g>
			<g>
				<path class="st17" d="M718.1768,512.1816h-35.9505c-12.1453,0-21.991-9.8457-21.991-21.991v-44.7469&#10;&#9;&#9;&#9;&#9;&#9;c0-12.1453,9.8457-21.991,21.991-21.991h35.9505c12.1453,0,21.991,9.8457,21.991,21.991v44.7469&#10;&#9;&#9;&#9;&#9;&#9;C740.1678,502.3359,730.3221,512.1816,718.1768,512.1816z" style="fill: rgb(216, 100, 53);"/>
				<path class="st13" d="M715.5117,467.8172h-30.6201c-4.231,0-7.6609-3.4299-7.6609-7.661v-12.597&#10;&#9;&#9;&#9;&#9;&#9;c0-4.231,3.4299-7.661,7.6609-7.661h30.6201c4.231,0,7.6609,3.43,7.6609,7.661v12.597&#10;&#9;&#9;&#9;&#9;&#9;C723.1726,464.3873,719.7427,467.8172,715.5117,467.8172z" style="fill: rgb(252, 190, 133);"/>
				<path class="st19" d="M699.233,464.3583c-0.9333,0-1.799-0.0628-2.5676-0.1866c-1.5641-0.2527-2.627-1.7255-2.3743-3.2891&#10;&#9;&#9;&#9;&#9;&#9;c0.2521-1.5636,1.7233-2.6236,3.2886-2.3748c4.6634,0.7591,15.0848-1.9933,16.1694-6.9592&#10;&#9;&#9;&#9;&#9;&#9;c0.3373-1.5474,1.8667-2.5266,3.4141-2.1899c1.5485,0.3378,2.5289,1.8667,2.1905,3.4146&#10;&#9;&#9;&#9;&#9;&#9;C717.636,460.6367,706.4291,464.3583,699.233,464.3583z" style="fill: rgb(220, 134, 55);"/>
			</g>
			<g>
				<path class="st17" d="M608.326,348.9989h-3.9536v-40.8555h24.4769v20.3321&#10;&#9;&#9;&#9;&#9;&#9;C628.8494,339.8103,619.6608,348.9989,608.326,348.9989z" style="fill: rgb(216, 100, 53);"/>
				<path class="st17" d="M792.0771,348.9989h3.9536v-40.8555h-24.4769v20.3321&#10;&#9;&#9;&#9;&#9;&#9;C771.5538,339.8103,780.7424,348.9989,792.0771,348.9989z" style="fill: rgb(216, 100, 53);"/>
			</g>
			<path class="st17" d="M774.4968,259.9134c-5.5491,0-10.7859,1.3247-15.4246,3.6626&#10;&#9;&#9;&#9;&#9;c-16.7355-13.1097-42.9847-23.7958-72.5184-23.7958c-50.5486,0-91.5265,31.2912-91.5265,52.4915&#10;&#9;&#9;&#9;&#9;c0,21.2004,40.9778,38.3867,91.5265,38.3867c25.2366,0,48.0861-4.2845,64.6432-11.2129&#10;&#9;&#9;&#9;&#9;c6.1211,5.6616,14.3044,9.1257,23.2998,9.1257c18.9593,0,34.3289-15.3696,34.3289-34.3289&#10;&#9;&#9;&#9;&#9;C808.8256,275.2829,793.4561,259.9134,774.4968,259.9134z" style="fill: rgb(216, 100, 53);"/>
			<path class="st17" d="M772.4247,302.4102c-7.3064-18.1988,1.5236-38.8747,19.7224-46.1811&#10;&#9;&#9;&#9;&#9;c6.0184-2.4163,12.3058-3.0579,18.293-2.1893c-9.5833-7.1023-22.5184-9.2133-34.3996-4.4433&#10;&#9;&#9;&#9;&#9;c-18.1987,7.3064-27.0287,27.9823-19.7224,46.1811c4.8901,12.1804,15.7712,20.154,27.8882,21.9117&#10;&#9;&#9;&#9;&#9;C779.1107,313.9128,774.961,308.7277,772.4247,302.4102z" style="fill: rgb(216, 100, 53);"/>
			<path class="st17" d="M729.2151,291.1941c18.3646-6.8791,27.6754-27.343,20.7962-45.7076&#10;&#9;&#9;&#9;&#9;c-2.2749-6.0733-6.0416-11.1482-10.7207-14.983c11.7071,2.2858,21.9895,10.4125,26.4806,22.402&#10;&#9;&#9;&#9;&#9;c6.8791,18.3645-2.4316,38.8285-20.7962,45.7076c-12.2913,4.6042-25.517,1.9478-34.9869-5.8133&#10;&#9;&#9;&#9;&#9;C716.2131,294.0152,722.84,293.5821,729.2151,291.1941z" style="fill: rgb(216, 100, 53);"/>
			<path class="st20" d="M799.5323,270.7667c1.0639,3.3121,1.6442,6.8408,1.6442,10.5064c0,18.9594-15.3696,34.3289-34.3289,34.3289&#10;&#9;&#9;&#9;&#9;c-8.9955,0-17.1787-3.4641-23.2998-9.1257c-16.5571,6.9284-39.4066,11.2129-64.6432,11.2129&#10;&#9;&#9;&#9;&#9;c-37.3157,0-69.3932-9.371-83.6426-22.8035c3.2073,19.9799,42.8401,35.7727,91.2916,35.7727&#10;&#9;&#9;&#9;&#9;c25.2366,0,48.0861-4.2845,64.6432-11.2129c6.1211,5.6616,14.3044,9.1257,23.2998,9.1257&#10;&#9;&#9;&#9;&#9;c18.9593,0,34.3289-15.3696,34.3289-34.3289C808.8256,285.1595,805.292,276.9066,799.5323,270.7667z" style="fill: rgb(196, 87, 45);"/>
		</g>
	</g>
	<path d="M 704.273622 568.987976 A 4.2735 4.2735 0 0 1 700.000122 573.261476 A 4.2735 4.2735 0 0 1 695.726622 568.987976 A 4.2735 4.2735 0 0 1 700.000122 564.714476 A 4.2735 4.2735 0 0 1 704.273622 568.987976 Z" class="st21" style="fill: rgb(206, 235, 240);"/>
	<path d="M 704.273622 594.329712 A 4.2735 4.2735 0 0 1 700.000122 598.603212 A 4.2735 4.2735 0 0 1 695.726622 594.329712 A 4.2735 4.2735 0 0 1 700.000122 590.056212 A 4.2735 4.2735 0 0 1 704.273622 594.329712 Z" class="st21" style="fill: rgb(206, 235, 240);"/>
	<path class="st22" d="M801.2108,673.4373l-4.1068,71.6496c-1.4746,25.7437-12.8581,48.6623-30.3192,65.1449&#10;&#9;&#9;c-17.4749,16.4964-41.0135,26.543-66.7849,26.543c-51.5563,0-94.1548-40.2142-97.104-91.6879l-4.1068-71.6496&#10;&#9;&#9;c12.7065-3.4454,22.0503-15.0631,22.0503-28.8583v-32.6069c0-4.4238,3.5831-7.9932,8.007-7.9932h142.3071&#10;&#9;&#9;c4.4238,0,8.007,3.5693,8.007,7.9932v32.6069C779.1605,658.3742,788.5043,669.9919,801.2108,673.4373z" style="fill: rgb(74, 77, 86);"/>
	<g>
		<g>
			<path class="st23" d="M759.8541,511.6808L759.8541,511.6808c5.0414,0,9.1282,4.0868,9.1282,9.1282v89.6154&#10;&#9;&#9;&#9;&#9;c0,5.0413-4.0869,9.1282-9.1282,9.1282h-0.0001c-5.0413,0-9.1282-4.0869-9.1282-9.1282V520.809&#10;&#9;&#9;&#9;&#9;C750.7259,515.7676,754.8127,511.6808,759.8541,511.6808z" style="fill: rgb(103, 105, 116);"/>
			<path class="st24" d="M771.1171,578.2495h-22.5254c-1.5222,0-2.7563-1.2341-2.7563-2.7563v-18.3748&#10;&#9;&#9;&#9;&#9;c0-1.5222,1.2341-2.7563,2.7563-2.7563h22.5254c1.5221,0,2.7563,1.2341,2.7563,2.7563v18.3748&#10;&#9;&#9;&#9;&#9;C773.8734,577.0153,772.6392,578.2495,771.1171,578.2495z M751.348,572.7369h17.0128v-12.8622H751.348V572.7369z" style="fill: rgb(254, 196, 101);"/>
			<path d="M 764.226526 609.372681 A 4.3724 4.3724 0 0 1 759.854126 613.74508 A 4.3724 4.3724 0 0 1 755.481726 609.372681 A 4.3724 4.3724 0 0 1 759.854126 605.000281 A 4.3724 4.3724 0 0 1 764.226526 609.372681 Z" class="st24" style="fill: rgb(254, 196, 101);"/>
		</g>
		<g>
			<path class="st23" d="M640.1459,511.6808L640.1459,511.6808c5.0414,0,9.1282,4.0868,9.1282,9.1282v89.6154&#10;&#9;&#9;&#9;&#9;c0,5.0413-4.0869,9.1282-9.1282,9.1282h-0.0001c-5.0413,0-9.1282-4.0869-9.1282-9.1282V520.809&#10;&#9;&#9;&#9;&#9;C631.0177,515.7676,635.1046,511.6808,640.1459,511.6808z" style="fill: rgb(103, 105, 116);"/>
			<path class="st24" d="M651.409,578.2495h-22.5261c-1.5221,0-2.7563-1.2341-2.7563-2.7563v-18.3748&#10;&#9;&#9;&#9;&#9;c0-1.5222,1.2342-2.7563,2.7563-2.7563h22.5261c1.5222,0,2.7563,1.2341,2.7563,2.7563v18.3748&#10;&#9;&#9;&#9;&#9;C654.1653,577.0153,652.9312,578.2495,651.409,578.2495z M631.6392,572.7369h17.0135v-12.8622h-17.0135V572.7369z" style="fill: rgb(254, 196, 101);"/>
			<path d="M 644.518274 609.372681 A 4.3724 4.3724 0 0 1 640.145874 613.74508 A 4.3724 4.3724 0 0 1 635.773474 609.372681 A 4.3724 4.3724 0 0 1 640.145874 605.000281 A 4.3724 4.3724 0 0 1 644.518274 609.372681 Z" class="st24" style="fill: rgb(254, 196, 101);"/>
		</g>
	</g>
	<path class="st11" d="M845.238,686.0521c-12.9362,0-25.2789-7.4748-30.8723-20.0571c-2.4615-5.5368-5.0483-11.0292-7.6875-16.3237&#10;&#9;&#9;l-0.6473-1.2907c-8.421-16.6373-1.7617-36.9514,14.877-45.373c16.6346-8.4223,36.9501-1.7617,45.3738,14.8756l0.8371,1.6702&#10;&#9;&#9;c3.0739,6.166,6.0899,12.5682,8.9539,19.0114c7.5745,17.0403-0.0982,36.9938-17.1379,44.5682&#10;&#9;&#9;C854.4772,685.1141,849.8192,686.0521,845.238,686.0521z" style="fill: rgb(142, 205, 232);"/>
	<path class="st13" d="M872.7201,757.9915c-10.7977,0-20.5106-7.5111-22.8793-18.4946&#10;&#9;&#9;c-4.9204-22.8147-13.6105-49.1501-24.4701-74.1546c-5.1546-11.869,0.288-25.6679,12.1556-30.8225&#10;&#9;&#9;c11.873-5.1586,25.6693,0.2894,30.8225,12.1557c12.052,27.7486,21.7448,57.205,27.2964,82.9429&#10;&#9;&#9;c2.728,12.6483-5.3148,25.1135-17.963,27.8414C876.0174,757.8179,874.3566,757.9915,872.7201,757.9915z" style="fill: rgb(252, 190, 133);"/>
	<g>
		<path class="st25" d="M912.0487,742.5896c0,21.708-17.5978,23.2413-39.3058,23.2413s-39.3058-1.5333-39.3058-23.2413&#10;&#9;&#9;&#9;c0-21.7081,17.5978-39.3058,39.3058-39.3058S912.0487,720.8815,912.0487,742.5896z" style="fill: rgb(251, 180, 117);"/>
		<path class="st14" d="M891.2702,707.9212c2.827,5.4261,4.4342,11.5889,4.4342,18.1307c0,21.708-17.5978,23.2413-39.3058,23.2413&#10;&#9;&#9;&#9;c-8.4169,0-16.2093-0.2368-22.6042-1.7844c2.5605,17.0164,19.0162,18.3221,38.9485,18.3221&#10;&#9;&#9;&#9;c21.708,0,39.3058-1.5333,39.3058-23.2413C912.0487,727.582,903.6353,714.5432,891.2702,707.9212z" style="fill: rgb(249, 158, 75);"/>
		
			<path d="M 869.92438 720.536621 A 11.6048 6.8907 0 0 1 858.31958 727.427321 A 11.6048 6.8907 0 0 1 846.71478 720.536621 A 11.6048 6.8907 0 0 1 858.31958 713.645921 A 11.6048 6.8907 0 0 1 869.92438 720.536621 Z" transform="matrix(0.9163 -0.4005 0.4005 0.9163 -216.7386 404.0949)" class="st26" style="fill: rgb(253, 200, 152);"/>
	</g>
	<path class="st13" d="M612.4993,596.4432c-7.2346,0-14.3682-3.3391-18.9542-9.6335&#10;&#9;&#9;c-21.5086-29.5211-86.2107-53.7725-109.3262-60.6255c-12.3999-3.6761-19.4824-16.7079-15.8137-29.1099&#10;&#9;&#9;c3.6695-12.4033,16.6871-19.4912,29.0918-15.8264c10.0548,2.9683,99.2391,30.3703,133.9188,77.9694&#10;&#9;&#9;c7.6195,10.4579,5.3188,25.1128-5.1391,32.7316C622.1134,594.9823,617.2838,596.4432,612.4993,596.4432z" style="fill: rgb(252, 190, 133);"/>
	<g>
		<path class="st27" d="M676.251,688.2615c-0.9221,6.8497-1.1666,12.688-0.6307,15.9033c1.1697,7.0217,16.3965,19.0422,21.1,19.0422&#10;&#9;&#9;&#9;h6.559c4.7044,0,19.9304-12.0205,21.1002-19.0422c0.5362-3.2157,0.2919-9.0541-0.6302-15.9033H676.251z" style="fill: rgb(204, 62, 104);"/>
		<path class="st28" d="M684.1849,656.3346c-3.1075,7.8824-8.2488,24.2767-5.6323,41.775c1.101-9.3577,6.0795-34.0683,12.902-41.775&#10;&#9;&#9;&#9;H684.1849z" style="opacity: 0.42; fill: rgb(255, 254, 249);"/>
		<path d="M 693.326312 692.655579 A 1.8716 1.8716 0 0 1 691.454712 694.527179 A 1.8716 1.8716 0 0 1 689.583112 692.655579 A 1.8716 1.8716 0 0 1 691.454712 690.783979 A 1.8716 1.8716 0 0 1 693.326312 692.655579 Z" class="st29" style="fill: rgb(232, 111, 158);"/>
		<path d="M 687.131915 699.185425 A 1.8716 1.8716 0 0 1 685.260315 701.057025 A 1.8716 1.8716 0 0 1 683.388715 699.185425 A 1.8716 1.8716 0 0 1 685.260315 697.313825 A 1.8716 1.8716 0 0 1 687.131915 699.185425 Z" class="st29" style="fill: rgb(232, 111, 158);"/>
		<path class="st27" d="M716.1874,687.2521c-0.5049-1.3893-1.0729-2.7521-1.7972-4.0125c-1.2523-2.1789-3.0263-4.0701-5.2119-4.8358&#10;&#9;&#9;&#9;c-0.6674-0.2338-1.3939-0.3575-2.0601-0.1188c-0.6661,0.2386-1.2466,0.9161-1.2608,1.7113&#10;&#9;&#9;&#9;c-0.0217,1.2141,1.1302,1.9566,2.1147,2.4228c0.9182,0.4347,1.8385,0.8694,2.7151,1.4041c0.9717,0.593,1.8851,1.3101,2.72,2.1299&#10;&#9;&#9;&#9;c0.729,0.7158,1.5701,2.4688,2.3682,2.9265C717.0183,689.5922,716.4713,688.0334,716.1874,687.2521z" style="fill: rgb(204, 62, 104);"/>
		<path class="st27" d="M710.0137,685.022c-1.234-0.4112-2.5682-0.6872-3.8311-0.3757c-1.2629,0.3114-2.4204,1.3457-2.5184,2.6428&#10;&#9;&#9;&#9;c-0.0385,0.509,0.1091,1.0629,0.5092,1.3801c0.3436,0.2725,0.8093,0.3279,1.2479,0.3301&#10;&#9;&#9;&#9;c1.8845,0.0093,3.6436-0.7479,5.4863-1.0189c1.0589-0.1557,4.0498,0.8422,4.6066,0.1391&#10;&#9;&#9;&#9;C714.3704,686.6107,711.7759,685.6093,710.0137,685.022z" style="fill: rgb(204, 62, 104);"/>
		<path class="st27" d="M723.7595,693.9617l-6.8638-0.6057c3.4683-39.2421-54.9265-94.2272-109.6176-103.2181l1.1177-6.7992&#10;&#9;&#9;&#9;c26.6437,4.3794,56.5038,20.0087,79.8758,41.8079C712.6779,647.9096,725.6127,672.9921,723.7595,693.9617z" style="fill: rgb(204, 62, 104);"/>
		<path class="st30" d="M722.4298,763.5996h-47.3064c-2.2596,0-4.0981-1.8384-4.0981-4.0981c0-2.2597,1.8384-4.0981,4.0981-4.0981&#10;&#9;&#9;&#9;h10.3556c2.0222,0,3.9844-0.5881,5.6734-1.7025c2.3068-1.5222,3.6849-4.082,3.6849-6.8463v-18.1527&#10;&#9;&#9;&#9;c-8.8214-1.9003-23.1888-14.2861-24.7366-23.5738c-1.5995-9.5959,2.3552-34.2598,9.2513-49.3655&#10;&#9;&#9;&#9;c0.2241-0.4912,0.714-0.8062,1.2537-0.8062h38.7892c0.5397,0,1.0295,0.3149,1.2543,0.8062&#10;&#9;&#9;&#9;c6.8961,15.1044,10.8502,39.7697,9.2499,49.3655c-1.5464,9.2877-15.9146,21.6721-24.7366,23.5738v18.1527&#10;&#9;&#9;&#9;c0,2.763,1.3781,5.3228,3.6849,6.8463c1.689,1.1144,3.6512,1.7025,5.6727,1.7025h7.9095c2.2597,0,4.0981,1.8384,4.0981,4.0981&#10;&#9;&#9;&#9;C726.5279,761.7612,724.6895,763.5996,722.4298,763.5996z M675.1234,758.1597c-0.7402,0-1.3418,0.6016-1.3418,1.3418&#10;&#9;&#9;&#9;c0,0.7402,0.6016,1.3418,1.3418,1.3418h47.3064c0.7402,0,1.3418-0.6016,1.3418-1.3418c0-0.7402-0.6016-1.3418-1.3418-1.3418&#10;&#9;&#9;&#9;h-7.9095c-2.5625,0-5.0483-0.7456-7.1895-2.1574c-3.0847-2.0363-4.9244-5.4561-4.9244-9.1477V727.531&#10;&#9;&#9;&#9;c0-0.7065,0.533-1.2974,1.2355-1.3714c7.5354-0.7833,22.1459-13.122,23.5388-21.4837l0,0&#10;&#9;&#9;&#9;c1.4777-8.8651-2.3054-32.4442-8.6794-46.9632h-37.0026c-6.374,14.519-10.1571,38.0981-8.6794,46.9632&#10;&#9;&#9;&#9;c1.3936,8.3617,16.0034,20.7004,23.5388,21.4837c0.7018,0.074,1.2355,0.6649,1.2355,1.3714v19.3236&#10;&#9;&#9;&#9;c0,3.693-1.8405,7.1128-4.9238,9.1477c-2.1412,1.4118-4.6277,2.1574-7.1909,2.1574H675.1234z" style="fill: rgb(228, 237, 248);"/>
		<path d="M 703.332782 684.413025 A 1.6664 1.6664 0 0 1 701.666382 686.079425 A 1.6664 1.6664 0 0 1 699.999982 684.413025 A 1.6664 1.6664 0 0 1 701.666382 682.746625 A 1.6664 1.6664 0 0 1 703.332782 684.413025 Z" class="st27" style="fill: rgb(204, 62, 104);"/>
		<path d="M 708.508271 673.437317 A 2.1857 2.1857 0 0 1 706.322571 675.623017 A 2.1857 2.1857 0 0 1 704.136871 673.437317 A 2.1857 2.1857 0 0 1 706.322571 671.251617 A 2.1857 2.1857 0 0 1 708.508271 673.437317 Z" class="st27" style="fill: rgb(204, 62, 104);"/>
		<path class="st31" d="M696.7203,723.2069h6.559c4.4567,0,18.3478-10.7852,20.7939-17.8911&#10;&#9;&#9;&#9;c-1.2899,0.2596-2.5634,0.6608-3.817,1.0647c-2.1999,0.7089-4.3998,1.4177-6.5996,2.1265&#10;&#9;&#9;&#9;c-2.5999,0.8377-5.2578,1.6846-7.989,1.6394c-5.9528-0.0985-11.0776-4.3524-16.9561-5.2947&#10;&#9;&#9;&#9;c-3.3924-0.5438-8.4801,0.2698-11.7238,2.702C681.0688,714.4799,692.7123,723.2069,696.7203,723.2069z" style="fill: rgb(166, 39, 83);"/>
		<g>
			<path class="st27" d="M509.3132,571.1427c-1.0031-1.0066-2.2119-1.8442-3.5542-2.4581c-1.127-0.5154-2.3449-0.9116-3.5826-0.8475&#10;&#9;&#9;&#9;&#9;c-1.2518,0.0648-2.4297,0.5936-3.5423,1.171c-5.9817,3.1045-2.4349,7.9415-4.3238,13.0117&#10;&#9;&#9;&#9;&#9;c-0.5756,1.545-1.8401,2.8187-3.381,3.4053c-0.9479,0.3607-1.9731,0.4677-2.9868,0.4999&#10;&#9;&#9;&#9;&#9;c-2.9077,0.0925-5.8101-0.4023-8.718-0.3151c-2.9079,0.0871-5.9786,0.8666-7.9376,3.0175&#10;&#9;&#9;&#9;&#9;c-1.0754,1.1809-1.7437,2.7261-1.8677,4.3185l10.8114,10.4821c-1.4839-2.3091-2.6738-5.2247-1.5675-7.7368&#10;&#9;&#9;&#9;&#9;c0.7911-1.7963,2.5789-2.9331,4.3542-3.7703c5.8208-2.7445,12.3781-3.3824,18.7857-3.9792&#10;&#9;&#9;&#9;&#9;c1.1201-0.1043,2.247-0.2097,3.3324-0.5056c3.2906-0.897,6.0075-3.6479,6.8637-6.9493&#10;&#9;&#9;&#9;&#9;C512.9277,576.9059,511.7058,573.5436,509.3132,571.1427z" style="fill: rgb(204, 62, 104);"/>
			<path class="st27" d="M476.6475,570.7863c-8.1196,3.0449-9.5695,14.6443-9.8643,19.1106l1.4618,4.2333&#10;&#9;&#9;&#9;&#9;c-2.1679-9.1345,6.2276-17.5442,8.513-17.3991c4.3153,6.0897,9.3141,2.6099,9.8941-0.725&#10;&#9;&#9;&#9;&#9;C487.232,572.6711,484.7672,567.7414,476.6475,570.7863z" style="fill: rgb(204, 62, 104);"/>
			<path class="st27" d="M466.7832,589.8969c-0.4726,9.9813,0.5124,19.0307,3.0015,26.277&#10;&#9;&#9;&#9;&#9;c3.7262,10.8447,10.3477,17.197,19.6819,18.8791c1.0288,0.1861,2.1537,0.2804,3.3413,0.2804h0.0009&#10;&#9;&#9;&#9;&#9;c13.8361,0,34.9435-12.3969,53.5635-23.3334c11.8642-6.9681,23.0708-13.5506,32.699-17.3422&#10;&#9;&#9;&#9;&#9;c6.596-2.5971,13.9516-3.9148,21.8627-3.9148c18.6038,0,37.968,7.3097,50.7396,15.8156l1.4006-6.7278&#10;&#9;&#9;&#9;&#9;C574.8302,554.9096,519.9833,600.2946,466.7832,589.8969z" style="fill: rgb(204, 62, 104);"/>
			<path class="st28" d="M509.4281,524.3167c23.6229,4.2584,54.9455,30.2307,77.5951,41.6937&#10;&#9;&#9;&#9;&#9;c22.6497,11.4629,59.3453,13.885,75.0847,12.0883l1.1749-6.5179c-16.1676,4.172-53.2505,3.8988-75.2184-11.3468&#10;&#9;&#9;&#9;&#9;c-21.9678-15.2456-51.4124-51.6359-75.0353-55.8943s-39.6426,13.8942-43.9423,37.7462&#10;&#9;&#9;&#9;&#9;c-0.2394,1.3279-0.5269,2.9229-0.8419,4.6705C471.0567,531.1588,485.8051,520.0583,509.4281,524.3167z" style="opacity: 0.42; fill: rgb(255, 254, 249);"/>
			<path class="st32" d="M580.9835,599.5148c26.6049-10.4778,61.0535,4.4094,74.3094,16.3893l1.6361-9.076&#10;&#9;&#9;&#9;&#9;c-13.8522-8.6726-48.8402-20.5671-74.4955-15.3568c-25.6553,5.2103-65.2557,25.159-88.8786,20.9007&#10;&#9;&#9;&#9;&#9;c-23.6229-4.2584-32.8741-23.6537-29.0209-45.0289c-0.4391,2.4361-0.8402,4.6611-1.1724,6.5037&#10;&#9;&#9;&#9;&#9;c-5.9839,33.1952,1.5557,62.0852,25.1786,66.3436S554.3788,609.9925,580.9835,599.5148z" style="opacity: 0.3; fill: rgb(111, 81, 95);"/>
			<path class="st30" d="M492.8371,641.9327c-1.5706,0-3.0853-0.1238-4.5409-0.3862c-11.696-2.1083-20.2543-10.1409-24.7514-23.2292&#10;&#9;&#9;&#9;&#9;c-4.119-11.9901-4.6512-27.4518-1.5396-44.715l6.5845-36.5295c5.4931-30.4706,22.5685-59.135,48.3609-54.4878&#10;&#9;&#9;&#9;&#9;c15.9139,2.8687,32.8473,23.6787,49.2228,43.8032c8.5165,10.4666,16.5613,20.3525,23.8752,26.9222&#10;&#9;&#9;&#9;&#9;c19.7314,17.7267,56.2354,17.3621,73.9252,10.3347c0.465-0.1844,0.9939-0.103,1.3808,0.214&#10;&#9;&#9;&#9;&#9;c0.3876,0.3163,0.5727,0.8183,0.4845,1.3109l-9.1894,50.9785c-0.0888,0.4926-0.438,0.8983-0.9118,1.0599&#10;&#9;&#9;&#9;&#9;c-0.4731,0.1622-0.9986,0.0538-1.3687-0.282c-14.1219-12.762-48.2014-25.8496-72.8808-16.1293l0,0&#10;&#9;&#9;&#9;&#9;c-9.1476,3.6028-20.1378,10.0575-31.7733,16.891C529.3902,629.6257,508.4347,641.9327,492.8371,641.9327z M511.5457,484.8493&#10;&#9;&#9;&#9;&#9;c-21.1883,0-35.3614,25.6343-40.2434,52.7119l-6.5839,36.5295c-2.9857,16.5613-2.477,31.9496,1.4333,43.3307&#10;&#9;&#9;&#9;&#9;c4.1526,12.0877,11.9793,19.4919,22.6331,21.4117c14.9079,2.6823,38.6162-11.2365,59.534-23.522&#10;&#9;&#9;&#9;&#9;c11.731-6.8894,22.8113-13.3972,32.1603-17.0795c26.9182-10.6012,60.0542,3.9104,73.8828,15.0695l8.3395-46.262&#10;&#9;&#9;&#9;&#9;c-16.854,5.6276-52.971,7.6565-74.4951-11.6779c-7.4741-6.7144-15.5842-16.681-24.1707-27.2338&#10;&#9;&#9;&#9;&#9;c-15.311-18.8156-32.6649-40.1425-47.5735-42.8294C514.7851,484.9953,513.1439,484.8493,511.5457,484.8493z" style="fill: rgb(228, 237, 248);"/>
			<path d="M 525.800129 572.055298 A 4.7123 4.7123 0 0 1 521.08783 576.767598 A 4.7123 4.7123 0 0 1 516.37553 572.055298 A 4.7123 4.7123 0 0 1 521.08783 567.342998 A 4.7123 4.7123 0 0 1 525.800129 572.055298 Z" class="st27" style="fill: rgb(204, 62, 104);"/>
		</g>
	</g>
	<g>
		
			<path d="M 645.476826 578.691711 A 33.001301 38.947498 0 0 1 612.475525 617.63921 A 33.001301 38.947498 0 0 1 579.474224 578.691711 A 33.001301 38.947498 0 0 1 612.475525 539.744213 A 33.001301 38.947498 0 0 1 645.476826 578.691711 Z" transform="matrix(0.099 -0.9951 0.9951 0.099 -24.0147 1130.8607)" class="st25" style="fill: rgb(251, 180, 117);"/>
		<path class="st14" d="M646.3083,563.3364c-0.0228,0.4022-0.0436,0.8044-0.0839,1.2084&#10;&#9;&#9;&#9;c-1.8047,18.1365-20.6193,31.1125-42.0237,28.9828c-13.2855-1.322-24.4415-8.155-30.5652-17.4838&#10;&#9;&#9;&#9;c-0.9994,17.6519,14.645,33.4047,35.5724,35.4869c21.4044,2.1298,40.219-10.8464,42.0236-28.9827&#10;&#9;&#9;&#9;C651.9161,575.6686,650.0505,569.0372,646.3083,563.3364z" style="fill: rgb(249, 158, 75);"/>
		
			<path d="M 618.439213 560.122925 A 12.7486 8.4475 0 0 1 605.690613 568.570425 A 12.7486 8.4475 0 0 1 592.942013 560.122925 A 12.7486 8.4475 0 0 1 605.690613 551.675425 A 12.7486 8.4475 0 0 1 618.439213 560.122925 Z" transform="matrix(0.9294 -0.3691 0.3691 0.9294 -163.9811 263.1309)" class="st26" style="fill: rgb(253, 200, 152);"/>
	</g>
</g>
<g transform="matrix(1, 0, 0, 1, -168.2891845703125, -220.33738708496094)">
	<path class="st30" d="M430.999,763.5996h-39.8087c-3.6149,0-6.5556-2.9407-6.5556-6.5556v-64.3878&#10;&#9;&#9;c0-0.7618,0.6171-1.3782,1.3781-1.3782h50.1629c0.7611,0,1.3781,0.6164,1.3781,1.3782v64.3878&#10;&#9;&#9;C437.5539,760.6589,434.6132,763.5996,430.999,763.5996z M387.391,694.0343v63.0097c0,2.0955,1.7045,3.7993,3.7993,3.7993h39.8087&#10;&#9;&#9;c2.0948,0,3.7986-1.7039,3.7986-3.7993v-63.0097H387.391z" style="fill: rgb(228, 237, 248);"/>
	<path class="st33" d="M431.3504,729.8524v22.3651c0,2.8589-2.3161,5.175-5.1751,5.175h-30.1578&#10;&#9;&#9;c-2.859,0-5.1751-2.3161-5.1751-5.175v-22.3651H431.3504z" style="fill: rgb(232, 108, 36);"/>
	<path class="st34" d="M395.2575,741.614c-1.0013,0-1.8095,0.8082-1.8095,1.8094v2.2075c0,1.0013,0.8082,1.8094,1.8095,1.8094&#10;&#9;&#9;c1.0012,0,1.8094-0.8082,1.8094-1.8094v-2.2075C397.0669,742.4222,396.2587,741.614,395.2575,741.614z M393.448,729.8524v8.9509&#10;&#9;&#9;c0,0.9892,0.8082,1.8094,1.8095,1.8094c1.0012,0,1.8094-0.8203,1.8094-1.8094v-8.9509H393.448z" style="fill: rgb(243, 141, 97);"/>
</g>

<g transform="matrix(1, 0, 0, 1, -168.2891845703125, -220.33738708496094)">
	<path class="st38" d="M1199.0355,764.0977h-998.071c-12.1509,0-22.0012,9.8503-22.0012,22.0012v0.0001&#10;&#9;&#9;c0,12.1509,9.8502,22.0012,22.0012,22.0012h998.071c12.151,0,22.0012-9.8502,22.0012-22.0012v-0.0001&#10;&#9;&#9;C1221.0367,773.9481,1211.1865,764.0977,1199.0355,764.0977z" style="fill: rgb(159, 97, 56);"/>
	<path d="M 214.8936 808.10022 H 1185.10643 V 897.50972 H 214.8936 V 808.10022 Z" class="st39" style="fill: rgb(147, 82, 38);"/>
	<path d="M 214.8936 808.10022 H 1185.10643 V 820.793019 H 214.8936 V 808.10022 Z" class="st40" style="fill: rgb(123, 53, 0);"/>
	<g>
		<path d="M 326.311188 808.10022 H 340.683787 V 897.50972 H 326.311188 V 808.10022 Z" class="st40" style="fill: rgb(123, 53, 0);"/>
		<path d="M 448.478699 808.10022 H 462.851298 V 897.50972 H 448.478699 V 808.10022 Z" class="st40" style="fill: rgb(123, 53, 0);"/>
		<path d="M 570.646179 808.10022 H 585.018779 V 897.50972 H 570.646179 V 808.10022 Z" class="st40" style="fill: rgb(123, 53, 0);"/>
		<path d="M 692.813721 808.10022 H 707.18632 V 897.50972 H 692.813721 V 808.10022 Z" class="st40" style="fill: rgb(123, 53, 0);"/>
		<path d="M 814.981201 808.10022 H 829.353801 V 897.50972 H 814.981201 V 808.10022 Z" class="st40" style="fill: rgb(123, 53, 0);"/>
		<path d="M 937.148682 808.10022 H 951.521281 V 897.50972 H 937.148682 V 808.10022 Z" class="st40" style="fill: rgb(123, 53, 0);"/>
		<path d="M 1059.316162 808.10022 H 1073.688762 V 897.50972 H 1059.316162 V 808.10022 Z" class="st40" style="fill: rgb(123, 53, 0);"/>
	</g>
</g>
</svg>