<?xml version="1.0" encoding="utf-8"?>
<svg id="master-artboard" viewBox="0 0 1400 980" version="1.1" xmlns="http://www.w3.org/2000/svg" x="0px" y="0px" width="1400px" height="980px" enable-background="new 0 0 1400 980" xmlns:xlink="http://www.w3.org/1999/xlink">
<defs>
			<path d="M -2.6 -1.3 H 1397.4 V 978.299976 H -2.6 V -1.3 Z" id="XMLID_203_"/>
		</defs><clipPath id="XMLID_241_">
			<use overflow="visible" xlink:href="#XMLID_203_"/>
		</clipPath><path id="XMLID_113_" fill-rule="evenodd" clip-rule="evenodd" fill="#BE8453" d="M131.7,1018.3c104.5,0,209.1-20.1,305.9-60.2&#10;&#9;&#9;&#9;&#9;&#9;V548.7c-96.9-40.1-201.4-60.2-305.9-60.2c-104.5,0-209.1,20.1-306,60.2v409.4C-77.4,998.2,27.2,1018.3,131.7,1018.3" transform="matrix(-1.002425193786621, 0, 0, 1.002425193786621, 1239.0412597656248, 29.566898493658314)"/><path id="XMLID_112_" fill-rule="evenodd" clip-rule="evenodd" fill="#8D633B" d="M437.7,591.2&#10;&#9;&#9;&#9;&#9;&#9;c-97.3-32.9-201.9-50.1-305.9-50.1c-104,0-208.7,17.2-306,50.1v-6.9c97.4-32.6,202-49.7,306-49.7c104,0,208.6,17.1,305.9,49.7&#10;&#9;&#9;&#9;&#9;&#9;V591.2z" transform="matrix(-1.002425193786621, 0, 0, 1.002425193786621, 1239.0412597656248, 29.566898493658314)"/><path id="XMLID_111_" fill-rule="evenodd" clip-rule="evenodd" fill="#8D633B" d="M437.7,705.2&#10;&#9;&#9;&#9;&#9;&#9;c-97.9-32.1-203.3-45.7-308.1-45.7c-103.3,0-207.1,13.2-303.8,44.3V697c96.8-30.8,200.6-44,303.8-44&#10;&#9;&#9;&#9;&#9;&#9;c104.8,0,210.1,13.6,308.1,45.4V705.2z" transform="matrix(-1.002425193786621, 0, 0, 1.002425193786621, 1239.0412597656248, -13.911795468438854)"/><path id="XMLID_110_" fill-rule="evenodd" clip-rule="evenodd" fill="#8D633B" d="M-174.2,915.1c97.3,32.8,201.9,50,306,50&#10;&#9;&#9;&#9;&#9;&#9;c104,0,208.7-17.2,305.9-50.1v6.9c-97.4,32.6-202,49.7-305.9,49.7c-104,0-208.6-17.1-306-49.7V915.1z" transform="matrix(-1, 0, 0, 1, 1237.7290175968544, -53.78314308152042)"/><path id="XMLID_109_" fill-rule="evenodd" clip-rule="evenodd" fill="#8D633B" d="M-174.2,802.4&#10;&#9;&#9;&#9;&#9;&#9;c96.7,31.1,200.5,44.3,303.8,44.3c104.8,0,210.2-13.6,308.1-45.7v6.8c-98,31.8-203.3,45.4-308.1,45.4&#10;&#9;&#9;&#9;&#9;&#9;c-103.2,0-207-13.1-303.8-44V802.4z" transform="matrix(-1.002425193786621, 0, 0, 1.002425193786621, 1239.0412597656248, -13.911795468438854)"/><path d="M -3.9000000953674316 494.20001220703125 L 35.900001525878906 486 L 35.900001525878906 753.4000244140625 L 35.900001525878906 1020.7000122070312 L -3.9000000953674316 1012.5999755859375 L -3.9000000953674316 753.4000244140625 Z" id="XMLID_108_" fill-rule="evenodd" clip-rule="evenodd" fill="#604D4A" transform="matrix(-1, 0, 0, 1, 1242.9338545670053, 1.734940097923527)"/><path d="M 35.900001525878906 486 L 46.5 493.3999938964844 L 46.5 753.4000244140625 L 46.5 1012.9000244140625 L 35.900001525878906 1020.2999877929688 L 35.900001525878906 753.4000244140625 Z" id="XMLID_107_" fill-rule="evenodd" clip-rule="evenodd" fill="#4A3A37" transform="matrix(-1, 0, 0, 1, 1242.9338545670053, 1.734940097923527)"/><path d="M 259.79998779296875 494.20001220703125 L 220 486 L 220 753.4000244140625 L 220 1020.7000122070312 L 259.79998779296875 1012.5999755859375 L 259.79998779296875 753.4000244140625 Z" id="XMLID_106_" fill-rule="evenodd" clip-rule="evenodd" fill="#604D4A" transform="matrix(-1, 0, 0, 1, 1242.933837890625, 45.10844250012066)"/><path d="M 220 486.5 L 209.5 493.8999938964844 L 209.5 753.4000244140625 L 209.5 1013.2999877929688 L 220 1020.7000122070312 L 220 753.4000244140625 Z" id="XMLID_105_" fill-rule="evenodd" clip-rule="evenodd" fill="#4A3A37" transform="matrix(-1, 0, 0, 1, 1242.933837890625, 45.10844250012066)"/><path d="M 386.1000061035156 526.2000122070312 L 346.29998779296875 511.6000061035156 L 346.29998779296875 752.9000244140625 L 346.29998779296875 994.7000122070312 L 386.1000061035156 978.9000244140625 L 386.1000061035156 752.9000244140625 Z" id="XMLID_101_" fill-rule="evenodd" clip-rule="evenodd" fill="#604D4A" transform="matrix(-1, 0, 0, 1, 1242.933837890625, 45.10844250012066)"/><path d="M 346.29998779296875 512 L 335.79998779296875 519.5 L 335.79998779296875 752.9000244140625 L 335.79998779296875 987.2999877929688 L 346.29998779296875 994.7000122070312 L 346.29998779296875 752.9000244140625 Z" id="XMLID_100_" fill-rule="evenodd" clip-rule="evenodd" fill="#4A3A37" transform="matrix(-1, 0, 0, 1, 1242.933837890625, 45.10844250012066)"/><path id="XMLID_98_" fill-rule="evenodd" clip-rule="evenodd" fill="#8D633B" d="M449.7,534.6L449.7,534.6&#10;&#9;&#9;&#9;&#9;&#9;c-6.5,0-11.8,5.3-11.8,11.8v413.8c0,6.5,5.3,11.8,11.8,11.8c6.5,0,11.8-5.3,11.8-11.8V546.5C461.6,540,456.2,534.6,449.7,534.6" transform="matrix(-1.002425193786621, 0, 0, 1.002425193786621, 1244.2586669921875, 41.74093147982241)"/><path id="XMLID_70_" fill-rule="evenodd" clip-rule="evenodd" fill="#203C5B" d="M244.4,269.7h42.9c2.4,0,4.4-2,4.4-4.4V240&#10;&#9;&#9;&#9;&#9;&#9;c0-2.4-2-4.4-4.4-4.4h-42.9c-2.4,0-4.4,2-4.4,4.4v25.3C240.1,267.8,242.1,269.7,244.4,269.7" transform="matrix(-1, 0, 0, 1, 1242.933837890625, 45.10844250012066)"/><path id="XMLID_69_" fill-rule="evenodd" clip-rule="evenodd" fill="#276190" d="M260.5,269.7h26.9c2.4,0,4.4-2,4.4-4.4V240&#10;&#9;&#9;&#9;&#9;&#9;c0-2.4-2-4.4-4.4-4.4h-26.9V269.7z" transform="matrix(-1, 0, 0, 1, 1242.933837890625, 45.10844250012066)"/><path id="XMLID_68_" fill-rule="evenodd" clip-rule="evenodd" fill="#29689B" d="M287.7,269.7c2.3-0.1,4.1-2,4.1-4.3V240&#10;&#9;&#9;&#9;&#9;&#9;c0-2.3-1.8-4.2-4.1-4.3L287.7,269.7z" transform="matrix(-1, 0, 0, 1, 1242.933837890625, 45.10844250012066)"/><path id="XMLID_67_" fill-rule="evenodd" clip-rule="evenodd" fill="#ECB66B" d="M219.3,863c-18.6,0-33.8-13.8-33.8-30.6&#10;&#9;&#9;&#9;&#9;&#9;l0-342.5c0-67.2,46.7-72.6,48-96.2l2.5-46.6l59.6-2l2.6,48.6c1.3,23.6,48,29,48,96.2v342.5c0,16.8-15.2,30.6-33.8,30.6&#10;&#9;&#9;&#9;&#9;&#9;C264.7,863,267.2,863,219.3,863" transform="matrix(-1, 0, 0, 1, 1242.933837890625, 45.10844250012066)"/><path id="XMLID_66_" fill-rule="evenodd" clip-rule="evenodd" fill="#FFD275" d="M298.3,393.7c0,0.4,0.1,0.7,0.1,1.1&#10;&#9;&#9;&#9;&#9;&#9;c0,0.4,0.1,0.7,0.2,1.1c0.1,0.4,0.1,0.7,0.2,1c0.1,0.4,0.2,0.7,0.3,1c0.1,0.3,0.2,0.7,0.3,1c0.1,0.3,0.3,0.7,0.4,1&#10;&#9;&#9;&#9;&#9;&#9;c0.1,0.3,0.3,0.7,0.5,1c0.2,0.3,0.3,0.6,0.5,1c0.2,0.3,0.4,0.6,0.6,0.9c0.2,0.3,0.4,0.6,0.6,0.9l0.6,0.9l0.7,0.9l0.7,0.9v0&#10;&#9;&#9;&#9;&#9;&#9;l0.8,0.9l0.8,0.9l0.8,0.9l0.9,0.9l0.9,0.9l0.9,0.9l1,0.9l1,1l1,1l1,1l1,1l1.1,1l1.1,1l1.1,1l1.1,1.1l1.1,1.1v0&#10;&#9;&#9;&#9;&#9;&#9;c0.4,0.4,0.7,0.7,1.1,1.1c0.4,0.4,0.7,0.8,1.1,1.1c0.4,0.4,0.7,0.8,1.1,1.2c0.4,0.4,0.7,0.8,1.1,1.2c0.4,0.4,0.7,0.8,1.1,1.2&#10;&#9;&#9;&#9;&#9;&#9;c0.4,0.4,0.7,0.8,1.1,1.3c0.4,0.4,0.7,0.9,1.1,1.3c0.4,0.4,0.7,0.9,1.1,1.4c0.4,0.5,0.7,0.9,1.1,1.4l0,0c0.4,0.5,0.7,1,1.1,1.4&#10;&#9;&#9;&#9;&#9;&#9;c0.3,0.5,0.7,1,1,1.5c0.3,0.5,0.7,1,1,1.5c0.3,0.5,0.7,1,1,1.6c0.3,0.5,0.7,1.1,1,1.6c0.3,0.5,0.6,1.1,1,1.7&#10;&#9;&#9;&#9;&#9;&#9;c0.3,0.6,0.6,1.1,0.9,1.7c0.3,0.6,0.6,1.2,0.9,1.8c0.3,0.6,0.6,1.2,0.9,1.8c0.3,0.6,0.6,1.3,0.8,1.9c0.3,0.6,0.5,1.3,0.8,2&#10;&#9;&#9;&#9;&#9;&#9;c0.3,0.7,0.5,1.3,0.8,2c0.3,0.7,0.5,1.4,0.7,2.1c0.2,0.7,0.5,1.4,0.7,2.2c0.2,0.7,0.4,1.5,0.7,2.2c0.2,0.8,0.4,1.5,0.6,2.3&#10;&#9;&#9;&#9;&#9;&#9;c0.2,0.8,0.4,1.6,0.6,2.4c0.2,0.8,0.3,1.6,0.5,2.4c0.2,0.8,0.3,1.7,0.5,2.5c0.1,0.9,0.3,1.7,0.4,2.6c0.1,0.9,0.2,1.8,0.3,2.7&#10;&#9;&#9;&#9;&#9;&#9;c0.1,0.9,0.2,1.8,0.3,2.8c0.1,0.9,0.2,1.9,0.2,2.8c0.1,1,0.1,1.9,0.2,2.9c0,1,0.1,2,0.1,3c0,1,0,2.1,0,3.1v342.5&#10;&#9;&#9;&#9;&#9;&#9;c0,16.8-15.2,30.6-33.8,30.6h-58.5c-15.6,0-25-17.3-25-28.6V489.9c0-67.2,31.1-72.5,31.2-96.2l0.4-134.6H291L298.3,393.7z" transform="matrix(-1, 0, 0, 1, 1242.933837890625, 45.10844250012066)"/><path id="XMLID_139_" fill-rule="evenodd" clip-rule="evenodd" fill="#FFE6AC" d="M280.1,259.1h5.2l5.4,127.6&#10;&#9;&#9;&#9;&#9;&#9;c0.2,5.7-6.6,6.2-6.7,0L280.1,259.1z M301.9,415.2c1.6,1.6,2.9,3.5,4.4,5.4c10.3,13,22,31.2,22,69.3v342.5&#10;&#9;&#9;&#9;&#9;&#9;c0,17.4-17.2,15.2-17.2,1.9l0-345.6c0-35.9-7.2-54.5-14.2-67.5c-1.1-2.1-3-3.9-3.4-6C292.3,408.5,297,410.4,301.9,415.2z" transform="matrix(-1, 0, 0, 1, 1242.933837890625, 45.10844250012066)"/><path d="M 193.199997 498.399994 H 338.699997 V 700.799988 H 193.199997 V 498.399994 Z" id="XMLID_63_" fill-rule="evenodd" clip-rule="evenodd" fill="#285178" transform="matrix(-1, 0, 0, 1, 1242.933837890625, 45.10844250012066)"/><path d="M 229.100006 498.399994 H 338.600006 V 700.799988 H 229.100006 V 498.399994 Z" id="XMLID_62_" fill-rule="evenodd" clip-rule="evenodd" fill="#2B6493" transform="matrix(-1, 0, 0, 1, 1242.933837890625, 45.10844250012066)"/><path id="XMLID_61_" fill-rule="evenodd" clip-rule="evenodd" fill="#203C5B" d="M235.8,351.9l5.1-92.8c31.8,0,18.3,0,50.1,0&#10;&#9;&#9;&#9;&#9;&#9;l5.1,92.8H235.8z" transform="matrix(-1, 0, 0, 1, 1242.933837890625, 45.10844250012066)"/><path d="M 240 274.79998779296875 L 240.1999969482422 272.1000061035156 L 291.70001220703125 272.1000061035156 L 291.79998779296875 274.79998779296875 Z" id="XMLID_60_" fill-rule="evenodd" clip-rule="evenodd" fill="#18273F" transform="matrix(-1, 0, 0, 1, 1242.933837890625, 45.10844250012066)"/><path id="XMLID_59_" fill-rule="evenodd" clip-rule="evenodd" fill="#203C5B" d="M235.9,245h60c3.1,0,5.7,2.5,5.7,5.7v15.8&#10;&#9;&#9;&#9;&#9;&#9;c0,3.1-2.5,5.7-5.7,5.7l-60,0c-3.1,0-5.7-2.5-5.7-5.7v-15.8C230.3,247.5,232.8,245,235.9,245" transform="matrix(-1, 0, 0, 1, 1242.933837890625, 45.10844250012066)"/><path id="XMLID_58_" fill-rule="evenodd" clip-rule="evenodd" fill="#276190" d="M291.7,272.1l4.4,79.7h-35.6l0.1-79.8&#10;&#9;&#9;&#9;&#9;&#9;c-2.9-0.5-5.1-2.8-5.1-5.6v-15.8c0-2.8,2.2-5.1,5.1-5.6V245h1.2h14.6h19c3.4,0,6.3,2.6,6.3,5.7v15.8c0,3.1-2.8,5.7-6.3,5.7&#10;&#9;&#9;&#9;&#9;&#9;L291.7,272.1z" transform="matrix(-1, 0, 0, 1, 1242.933837890625, 45.10844250012066)"/><path d="M 289.29998779296875 351.8999938964844 L 282.8999938964844 351.8999938964844 L 280.1000061035156 272.1000061035156 L 285.29998779296875 272.1000061035156 Z" id="XMLID_57_" fill-rule="evenodd" clip-rule="evenodd" fill="#29689B" transform="matrix(-1, 0, 0, 1, 1242.933837890625, 45.10844250012066)"/><path d="M 311.100006 498.399994 H 328.300007 V 700.799988 H 311.100006 V 498.399994 Z" id="XMLID_56_" fill-rule="evenodd" clip-rule="evenodd" fill="#287EC2" transform="matrix(-1, 0, 0, 1, 1242.933837890625, 45.10844250012066)"/><path id="XMLID_55_" fill-rule="evenodd" clip-rule="evenodd" fill="#29689B" d="M287.6,245l0,27.2c2.6,0,4,0,6.3,0l-0.4-27.2&#10;&#9;&#9;&#9;&#9;&#9;H287.6z" transform="matrix(-1, 0, 0, 1, 1242.933837890625, 45.10844250012066)"/><path id="XMLID_127_" fill-rule="evenodd" clip-rule="evenodd" fill="#264F77" d="M295.2,272.1l-0.2,0L295.2,272.1L295.2,272.1z&#10;&#9;&#9;&#9;&#9;&#9; M291.7,272.1l0.1,2.6h-31.3l0-2.6L291.7,272.1z" transform="matrix(-1, 0, 0, 1, 1242.933837890625, 45.10844250012066)"/><path d="M 240.100006 243.300003 H 291.700005 V 244.900003 H 240.100006 V 243.300003 Z" id="XMLID_52_" fill-rule="evenodd" clip-rule="evenodd" fill="#18273F" transform="matrix(-1, 0, 0, 1, 1242.933837890625, 45.10844250012066)"/><path d="M 260.5 243.300003 H 291.700001 V 244.900003 H 260.5 V 243.300003 Z" id="XMLID_51_" fill-rule="evenodd" clip-rule="evenodd" fill="#264F77" transform="matrix(-1, 0, 0, 1, 1242.933837890625, 45.10844250012066)"/><path d="M 234.89999389648438 369.20001220703125 L 235.60000610351562 356 L 296.20001220703125 356 L 297 369.20001220703125 Z" id="XMLID_50_" fill-rule="evenodd" clip-rule="evenodd" fill="#203C5B" transform="matrix(-1, 0, 0, 1, 1242.933837890625, 45.10844250012066)"/><path d="M 260.3999938964844 369.20001220703125 L 260.3999938964844 356 L 296.20001220703125 356 L 297 369.20001220703125 Z" id="XMLID_49_" fill-rule="evenodd" clip-rule="evenodd" fill="#276190" transform="matrix(-1, 0, 0, 1, 1242.933837890625, 45.10844250012066)"/><path d="M 283.1000061035156 356 L 289.3999938964844 356 L 290 369.20001220703125 L 283.5 369.20001220703125 Z" id="XMLID_48_" fill-rule="evenodd" clip-rule="evenodd" fill="#29689B" transform="matrix(-1, 0, 0, 1, 1242.933837890625, 45.10844250012066)"/><path d="M 193.199997 498.399994 H 338.699997 V 516.399994 H 193.199997 V 498.399994 Z" id="XMLID_47_" fill-rule="evenodd" clip-rule="evenodd" fill="#BB0B3F" transform="matrix(-1, 0, 0, 1, 1242.933837890625, 45.10844250012066)"/><path d="M 229.100006 498.399994 H 338.600006 V 516.399994 H 229.100006 V 498.399994 Z" id="XMLID_46_" fill-rule="evenodd" clip-rule="evenodd" fill="#BB0B3F" transform="matrix(-1, 0, 0, 1, 1242.933837890625, 45.10844250012066)"/><path d="M 311.100006 498.399994 H 328.300007 V 516.399994 H 311.100006 V 498.399994 Z" id="XMLID_45_" fill-rule="evenodd" clip-rule="evenodd" fill="#BB0B3F" transform="matrix(-1, 0, 0, 1, 1242.933837890625, 45.10844250012066)"/><path d="M 193.199997 498.399994 H 338.699997 V 516.399994 H 193.199997 V 498.399994 Z" id="XMLID_44_" fill-rule="evenodd" clip-rule="evenodd" fill="#E7224B" transform="matrix(-1, 0, 0, 1, 1242.933837890625, 45.10844250012066)"/><path d="M 229.100006 498.399994 H 338.600006 V 516.399994 H 229.100006 V 498.399994 Z" id="XMLID_43_" fill-rule="evenodd" clip-rule="evenodd" fill="#BB0B3F" transform="matrix(-1, 0, 0, 1, 1242.933837890625, 45.10844250012066)"/><path d="M 311.100006 498.399994 H 328.300007 V 516.399994 H 311.100006 V 498.399994 Z" id="XMLID_42_" fill-rule="evenodd" clip-rule="evenodd" fill="#F15F79" transform="matrix(-1, 0, 0, 1, 1242.933837890625, 45.10844250012066)"/><path d="M 193.199997 683.599976 H 338.699997 V 701.599976 H 193.199997 V 683.599976 Z" id="XMLID_41_" fill-rule="evenodd" clip-rule="evenodd" fill="#BB0B3F" transform="matrix(-1, 0, 0, 1, 1242.9338545670053, 1.734940097923527)"/><path d="M 229.100006 683.599976 H 338.600006 V 701.599976 H 229.100006 V 683.599976 Z" id="XMLID_40_" fill-rule="evenodd" clip-rule="evenodd" fill="#BB0B3F" transform="matrix(-1, 0, 0, 1, 1242.9338545670053, 1.734940097923527)"/><path d="M 311.100006 683.599976 H 328.300007 V 701.599976 H 311.100006 V 683.599976 Z" id="XMLID_39_" fill-rule="evenodd" clip-rule="evenodd" fill="#BB0B3F" transform="matrix(-1, 0, 0, 1, 1242.9338545670053, 1.734940097923527)"/><path d="M 193.199997 683.599976 H 338.699997 V 701.599976 H 193.199997 V 683.599976 Z" id="XMLID_38_" fill-rule="evenodd" clip-rule="evenodd" fill="#E7224B" transform="matrix(-1, 0, 0, 1, 1242.9338545670053, 1.734940097923527)"/><path d="M 229.100006 683.599976 H 338.600006 V 701.599976 H 229.100006 V 683.599976 Z" id="XMLID_37_" fill-rule="evenodd" clip-rule="evenodd" fill="#BB0B3F" transform="matrix(-1, 0, 0, 1, 1242.9338545670053, 1.734940097923527)"/><path d="M 311.100006 683.599976 H 328.300007 V 701.599976 H 311.100006 V 683.599976 Z" id="XMLID_36_" fill-rule="evenodd" clip-rule="evenodd" fill="#F15F79" transform="matrix(-1, 0, 0, 1, 1242.9338545670053, 1.734940097923527)"/><path id="XMLID_35_" fill-rule="evenodd" clip-rule="evenodd" fill="#E7224B" d="M411.2,351.1h37.1c2.1,0,3.8-1.7,3.8-3.8v-21.9&#10;&#9;&#9;&#9;&#9;&#9;c0-2.1-1.7-3.8-3.8-3.8h-37.1c-2.1,0-3.8,1.7-3.8,3.8v21.9C407.5,349.4,409.1,351.1,411.2,351.1" transform="matrix(-1, 0, 0, 1, 1242.933837890625, 34.6988019125795)"/><path id="XMLID_34_" fill-rule="evenodd" clip-rule="evenodd" fill="#BB0B3F" d="M425.1,351.1h23.2c2.1,0,3.8-1.7,3.8-3.8v-21.9&#10;&#9;&#9;&#9;&#9;&#9;c0-2.1-1.7-3.8-3.8-3.8h-23.2V351.1z" transform="matrix(-1, 0, 0, 1, 1251.6084992000003, 27.759040110449675)"/><path id="XMLID_33_" fill-rule="evenodd" clip-rule="evenodd" fill="#F15F79" d="M448.5,351.1c2-0.1,3.5-1.8,3.5-3.7v-21.9&#10;&#9;&#9;&#9;&#9;&#9;c0-2-1.6-3.6-3.5-3.7L448.5,351.1z" transform="matrix(-1, 0, 0, 1, 1256.8133586740132, 50.313262793891255)"/><path id="XMLID_32_" fill-rule="evenodd" clip-rule="evenodd" fill="#2E1C4A" d="M389.5,863c-16,0-29.1-11.9-29.1-26.4l0-295.5&#10;&#9;&#9;&#9;&#9;&#9;c0-58,40.3-62.6,41.5-83l2.2-40.2l51.4-1.7l2.3,41.9c1.1,20.4,41.5,25.1,41.5,83v295.5c0,14.5-13.1,26.4-29.1,26.4&#10;&#9;&#9;&#9;&#9;&#9;C428.6,863,430.8,863,389.5,863" transform="matrix(-1.002425193786621, 0, 0, 1.002425193786621, 1245.993607090111, 50.457711467169474)"/><path id="XMLID_31_" fill-rule="evenodd" clip-rule="evenodd" fill="#402B5C" d="M457.7,458.1c0,0.3,0,0.6,0.1,0.9&#10;&#9;&#9;&#9;&#9;&#9;c0,0.3,0.1,0.6,0.1,0.9c0.1,0.3,0.1,0.6,0.2,0.9c0.1,0.3,0.2,0.6,0.2,0.9c0.1,0.3,0.2,0.6,0.3,0.9c0.1,0.3,0.2,0.6,0.3,0.9&#10;&#9;&#9;&#9;&#9;&#9;c0.1,0.3,0.2,0.6,0.4,0.8c0.1,0.3,0.3,0.6,0.4,0.8c0.2,0.3,0.3,0.5,0.5,0.8c0.2,0.3,0.3,0.5,0.5,0.8l0.6,0.8l0.6,0.8l0.6,0.8v0&#10;&#9;&#9;&#9;&#9;&#9;l0.7,0.8l0.7,0.8l0.7,0.8l0.8,0.8l0.8,0.8l0.8,0.8l0.8,0.8l0.8,0.8l0.9,0.8l0.9,0.8l0.9,0.9l0.9,0.9l0.9,0.9l0.9,0.9l0.9,0.9&#10;&#9;&#9;&#9;&#9;&#9;l0.9,0.9v0c0.3,0.3,0.6,0.6,1,1c0.3,0.3,0.6,0.7,1,1c0.3,0.3,0.6,0.7,1,1c0.3,0.3,0.6,0.7,1,1c0.3,0.3,0.6,0.7,1,1.1&#10;&#9;&#9;&#9;&#9;&#9;c0.3,0.4,0.6,0.7,1,1.1c0.3,0.4,0.6,0.8,0.9,1.1c0.3,0.4,0.6,0.8,0.9,1.2c0.3,0.4,0.6,0.8,0.9,1.2l0,0c0.3,0.4,0.6,0.8,0.9,1.2&#10;&#9;&#9;&#9;&#9;&#9;c0.3,0.4,0.6,0.8,0.9,1.3c0.3,0.4,0.6,0.9,0.9,1.3c0.3,0.4,0.6,0.9,0.9,1.4c0.3,0.5,0.6,0.9,0.9,1.4c0.3,0.5,0.6,1,0.8,1.4&#10;&#9;&#9;&#9;&#9;&#9;c0.3,0.5,0.5,1,0.8,1.5c0.3,0.5,0.5,1,0.8,1.5c0.3,0.5,0.5,1.1,0.8,1.6c0.2,0.5,0.5,1.1,0.7,1.6c0.2,0.6,0.5,1.1,0.7,1.7&#10;&#9;&#9;&#9;&#9;&#9;c0.2,0.6,0.4,1.2,0.7,1.8c0.2,0.6,0.4,1.2,0.6,1.8c0.2,0.6,0.4,1.2,0.6,1.9c0.2,0.6,0.4,1.3,0.6,1.9c0.2,0.7,0.4,1.3,0.5,2&#10;&#9;&#9;&#9;&#9;&#9;c0.2,0.7,0.3,1.4,0.5,2c0.2,0.7,0.3,1.4,0.4,2.1c0.1,0.7,0.3,1.4,0.4,2.2c0.1,0.7,0.2,1.5,0.3,2.2c0.1,0.8,0.2,1.5,0.3,2.3&#10;&#9;&#9;&#9;&#9;&#9;c0.1,0.8,0.2,1.6,0.3,2.4c0.1,0.8,0.1,1.6,0.2,2.5c0.1,0.8,0.1,1.7,0.1,2.5c0,0.9,0.1,1.7,0.1,2.6c0,0.9,0,1.8,0,2.7v295.5&#10;&#9;&#9;&#9;&#9;&#9;c0,14.5-13.1,26.4-29.1,26.4h-50.4c-13.5,0-21.6-14.9-21.6-24.7V541.1c0-58,26.8-62.6,26.9-83l0.4-116.2h26.1L457.7,458.1z" transform="matrix(-1.002425193786621, 0, 0, 1.002425193786621, 1244.2586669921875, 40.0017838763106)"/><path id="XMLID_102_" fill-rule="evenodd" clip-rule="evenodd" fill="#4B3D6E" d="M442,341.9h4.5l4.7,110.1&#10;&#9;&#9;&#9;&#9;&#9;c0.2,4.9-5.7,5.4-5.8,0L442,341.9z M460.8,476.6c1.4,1.4,2.5,3,3.8,4.6c8.9,11.2,18.9,26.9,18.9,59.8v295.5&#10;&#9;&#9;&#9;&#9;&#9;c0,15-14.8,13.1-14.8,1.6l0-298.2c0-31-6.2-47-12.3-58.2c-1-1.8-2.6-3.3-2.9-5.2C452.5,470.8,456.6,472.5,460.8,476.6z" transform="matrix(-1.002425193786621, 0, 0, 1.002425193786621, 1244.2586669921875, 41.74093147982241)"/><path d="M 367 548.400024 H 492.5 V 723.000031 H 367 V 548.400024 Z" id="XMLID_28_" fill-rule="evenodd" clip-rule="evenodd" fill="#CDCFD0" transform="matrix(-1.002425193786621, 0, 0, 1.002425193786621, 1244.2586669921875, 41.74093147982241)"/><path d="M 398 548.400024 H 492.5 V 723.000031 H 398 V 548.400024 Z" id="XMLID_27_" fill-rule="evenodd" clip-rule="evenodd" fill="#E9E9EA" transform="matrix(-1.002425193786621, 0, 0, 1.002425193786621, 1244.2586669921875, 41.74093147982241)"/><path id="XMLID_26_" fill-rule="evenodd" clip-rule="evenodd" fill="#E7224B" d="M403.8,422l4.4-80.1c27.4,0,15.8,0,43.2,0&#10;&#9;&#9;&#9;&#9;&#9;l4.4,80.1H403.8z" transform="matrix(-1, 0, 0, 1, 1242.933837890625, 45.10844250012066)"/><path d="M 407.3999938964844 355.3999938964844 L 407.5 353.20001220703125 L 452 353.20001220703125 L 452.1000061035156 355.3999938964844 Z" id="XMLID_25_" fill-rule="evenodd" clip-rule="evenodd" fill="#C72537" transform="matrix(-1, 0, 0, 1, 1242.9338545670053, 1.734940097923527)"/><path id="XMLID_24_" fill-rule="evenodd" clip-rule="evenodd" fill="#E7224B" d="M403.9,329.7h51.8c2.7,0,4.9,2.2,4.9,4.9v13.7&#10;&#9;&#9;&#9;&#9;&#9;c0,2.7-2.2,4.9-4.9,4.9l-51.8,0c-2.7,0-4.9-2.2-4.9-4.9v-13.7C399,331.9,401.2,329.7,403.9,329.7" transform="matrix(-1, 0, 0, 1, 1242.933837890625, 45.10844250012066)"/><path id="XMLID_23_" fill-rule="evenodd" clip-rule="evenodd" fill="#BB0B3F" d="M452,353.2l3.8,68.8H425l0.1-68.9&#10;&#9;&#9;&#9;&#9;&#9;c-2.5-0.4-4.4-2.4-4.4-4.8v-13.7c0-2.4,1.9-4.4,4.4-4.8v-0.1h1h12.6h16.4c3,0,5.4,2.2,5.4,4.9v13.7c0,2.7-2.4,4.9-5.4,4.9&#10;&#9;&#9;&#9;&#9;&#9;L452,353.2z" transform="matrix(-1, 0, 0, 1, 1253.3434784781662, 45.10844405826742)"/><path d="M 449.8999938964844 422 L 444.3999938964844 422 L 442 353.20001220703125 L 446.5 353.20001220703125 Z" id="XMLID_22_" fill-rule="evenodd" clip-rule="evenodd" fill="#F15F79" transform="matrix(-1, 0, 0, 1, 1249.873598282319, 46.84338259804419)"/><path d="M 468.700012 548.400024 H 483.500012 V 723.000031 H 468.700012 V 548.400024 Z" id="XMLID_21_" fill-rule="evenodd" clip-rule="evenodd" fill="#FFFFFF" transform="matrix(-1.002425193786621, 0, 0, 1.002425193786621, 1244.2586669921875, 41.74093147982241)"/><path id="XMLID_20_" fill-rule="evenodd" clip-rule="evenodd" fill="#F15F79" d="M448.5,329.7l0,23.4c2.2,0,3.4,0,5.4,0&#10;&#9;&#9;&#9;&#9;&#9;l-0.3-23.4H448.5z" transform="matrix(-1, 0, 0, 1, 1251.6085383802426, 32.96386181465597)"/><path id="XMLID_90_" fill-rule="evenodd" clip-rule="evenodd" fill="#E7224B" d="M455,353.2h-0.2H455z M452,353.2l0.1,2.3h-27&#10;&#9;&#9;&#9;&#9;&#9;l0-2.3L452,353.2z" transform="matrix(-1, 0, 0, 1, 1251.6085383802426, 32.96386181465597)"/><path d="M 425.100006 328.299988 H 452.000006 V 329.699988 H 425.100006 V 328.299988 Z" id="XMLID_16_" fill-rule="evenodd" clip-rule="evenodd" fill="#E7224B" transform="matrix(-1, 0, 0, 1, 1251.6085383802426, 31.22892171673243)"/><path d="M 402.8999938964844 436.8999938964844 L 403.6000061035156 425.5 L 455.8999938964844 425.5 L 456.5 436.8999938964844 Z" id="XMLID_15_" fill-rule="evenodd" clip-rule="evenodd" fill="#E7224B" transform="matrix(-1, 0, 0, 1, 1242.933837890625, 43.37350186943104)"/><path d="M 424.8999938964844 436.8999938964844 L 425 425.5 L 455.8999938964844 425.5 L 456.5 436.8999938964844 Z" id="XMLID_14_" fill-rule="evenodd" clip-rule="evenodd" fill="#BB0B3F" transform="matrix(-1, 0, 0, 1, 1251.6085383802426, 26.02410142296185)"/><path d="M 444.5 425.5 L 450 425.5 L 450.5 436.8999938964844 L 444.8999938964844 436.8999938964844 Z" id="XMLID_13_" fill-rule="evenodd" clip-rule="evenodd" fill="#F15F79" transform="matrix(-1, 0, 0, 1, 1242.9338545670053, 1.734940097923527)"/><path d="M 367 548.400024 H 492.5 V 563.900024 H 367 V 548.400024 Z" id="XMLID_12_" fill-rule="evenodd" clip-rule="evenodd" fill="#BB0B3F" transform="matrix(-1.002425193786621, 0, 0, 1.002425193786621, 1244.2586669921875, 41.74093147982241)"/><path d="M 398 548.400024 H 492.5 V 563.900024 H 398 V 548.400024 Z" id="XMLID_11_" fill-rule="evenodd" clip-rule="evenodd" fill="#BB0B3F" transform="matrix(-1.002425193786621, 0, 0, 1.002425193786621, 1244.2586669921875, 41.74093147982241)"/><path d="M 468.700012 548.400024 H 483.500012 V 563.900024 H 468.700012 V 548.400024 Z" id="XMLID_10_" fill-rule="evenodd" clip-rule="evenodd" fill="#BB0B3F" transform="matrix(-1.002425193786621, 0, 0, 1.002425193786621, 1244.2586669921875, 41.74093147982241)"/><path d="M 367 548.400024 H 492.5 V 563.900024 H 367 V 548.400024 Z" id="XMLID_9_" fill-rule="evenodd" clip-rule="evenodd" fill="#E7224B" transform="matrix(-1.002425193786621, 0, 0, 1.002425193786621, 1244.2586669921875, 41.74093147982241)"/><path d="M 398 548.400024 H 492.5 V 563.900024 H 398 V 548.400024 Z" id="XMLID_8_" fill-rule="evenodd" clip-rule="evenodd" fill="#BB0B3F" transform="matrix(-1.002425193786621, 0, 0, 1.002425193786621, 1244.2586669921875, 41.74093147982241)"/><path d="M 468.700012 548.400024 H 483.500012 V 563.900024 H 468.700012 V 548.400024 Z" id="XMLID_7_" fill-rule="evenodd" clip-rule="evenodd" fill="#F15F79" transform="matrix(-1.002425193786621, 0, 0, 1.002425193786621, 1244.2586669921875, 41.74093147982241)"/><path d="M 367 708.200012 H 492.5 V 723.700012 H 367 V 708.200012 Z" id="XMLID_6_" fill-rule="evenodd" clip-rule="evenodd" fill="#BB0B3F" transform="matrix(-1.002425193786621, 0, 0, 1.002425193786621, 1244.2586669921875, 41.74093147982241)"/><path d="M 398 708.200012 H 492.5 V 723.700012 H 398 V 708.200012 Z" id="XMLID_5_" fill-rule="evenodd" clip-rule="evenodd" fill="#BB0B3F" transform="matrix(-1.002425193786621, 0, 0, 1.002425193786621, 1244.2586669921875, 41.74093147982241)"/><path d="M 468.700012 708.200012 H 483.500012 V 723.700012 H 468.700012 V 708.200012 Z" id="XMLID_4_" fill-rule="evenodd" clip-rule="evenodd" fill="#BB0B3F" transform="matrix(-1.002425193786621, 0, 0, 1.002425193786621, 1244.2586669921875, 41.74093147982241)"/><path d="M 367 708.200012 H 492.5 V 723.700012 H 367 V 708.200012 Z" id="XMLID_3_" fill-rule="evenodd" clip-rule="evenodd" fill="#E7224B" transform="matrix(-1.002425193786621, 0, 0, 1.002425193786621, 1244.2586669921875, 41.74093147982241)"/><path d="M 398 708.200012 H 492.5 V 723.700012 H 398 V 708.200012 Z" id="XMLID_2_" fill-rule="evenodd" clip-rule="evenodd" fill="#BB0B3F" transform="matrix(-1.002425193786621, 0, 0, 1.002425193786621, 1244.2586669921875, 41.74093147982241)"/><path d="M 468.700012 708.200012 H 483.500012 V 723.700012 H 468.700012 V 708.200012 Z" id="XMLID_1_" fill-rule="evenodd" clip-rule="evenodd" fill="#F15F79" transform="matrix(-1.002425193786621, 0, 0, 1.002425193786621, 1244.2586669921875, 41.74093147982241)"/><path id="XMLID_97_" fill-rule="evenodd" clip-rule="evenodd" fill="#E6E6E8" d="M434.4,864.1h95.3c3.1,0,5.6-2.5,5.6-5.6&#10;&#9;&#9;&#9;&#9;&#9;c0-3.1-2.5-5.6-5.6-5.6h-95.3c-3.1,0-5.6,2.5-5.6,5.6C428.7,861.5,431.3,864.1,434.4,864.1" transform="matrix(-1, 0, 0, 1, 1242.933837890625, 43.37350240219713)"/><path id="XMLID_96_" fill-rule="evenodd" clip-rule="evenodd" fill="#F0EEEE" d="M500.2,856c-4.8-4.7-11.6-7.7-11.6-24.2l0-85.2&#10;&#9;&#9;&#9;&#9;&#9;c0-17.7,9.4-26.4,19.7-33.5h-52.6c10.3,7.1,19.7,15.8,19.7,33.5l0,85.2c0,16.5-6.9,19.5-11.6,24.2&#10;&#9;&#9;&#9;&#9;&#9;C470.7,862.3,491.9,860.2,500.2,856" transform="matrix(-1.002425193786621, 0, 0, 1.002425193786621, 1244.2586669921875, 41.74093147982241)"/><path id="XMLID_95_" fill-rule="evenodd" clip-rule="evenodd" fill="#E6E6E8" d="M456.6,713.6c9.9,7,18.8,15.7,18.8,32.9l0,85.2&#10;&#9;&#9;&#9;&#9;&#9;c0,13-4.2,17.6-8.3,21.3c14.5,0.9,13.5-21.4,13.5-28.3v-85.2c0-7.9,0-22.1-5.1-26.5C471.3,709.4,462.8,715,456.6,713.6" transform="matrix(-1.002425193786621, 0, 0, 1.002425193786621, 1244.2586669921875, 41.74093147982241)"/><path id="XMLID_93_" opacity="0.75" fill-rule="evenodd" clip-rule="evenodd" fill="#E6E6E8" d="M526.6,537.3h-89.2&#10;&#9;&#9;&#9;&#9;&#9;c-4.6,17.4-28.6,74.8-16.1,124.6c9.3,37.3,34.6,58.6,60.7,58.6c26.1,0,51.3-21.3,60.7-58.6C555.2,612.1,531.2,554.7,526.6,537.3&#10;&#9;&#9;&#9;&#9;&#9;" transform="matrix(-1.002425193786621, 0, 0, 1.002425193786621, 1244.2586669921875, 41.74093147982241)"/><path id="XMLID_92_" fill-rule="evenodd" clip-rule="evenodd" fill="#F0EEEE" d="M454.2,537.3h-7.6c-3.6,16.7-22.7,72-12.8,120&#10;&#9;&#9;&#9;&#9;&#9;c4,19.2,11.5,33.9,20.8,43.5c-4.6-9.5-8.2-21.6-10.4-36.1C436.4,613.8,451.4,555.1,454.2,537.3" transform="matrix(-1.002425193786621, 0, 0, 1.002425193786621, 1244.2586669921875, 41.74093147982241)"/><path id="XMLID_91_" fill-rule="evenodd" clip-rule="evenodd" fill="#ECB66B" d="M421,597.5c-3.6,20.4-5,43.1,0.3,64.5&#10;&#9;&#9;&#9;&#9;&#9;c9.4,37.3,34.6,58.6,60.7,58.6c26.1,0,51.3-21.3,60.7-58.6c5.4-21.4,4-44.1,0.3-64.5H421z" transform="matrix(-1.002425193786621, 0, 0, 1.002425193786621, 1244.2586669921875, 41.74093147982241)"/><path id="XMLID_89_" opacity="0.42" fill-rule="evenodd" clip-rule="evenodd" fill="#F0EEEE" d="M526.6,537.3h-56&#10;&#9;&#9;&#9;&#9;&#9;c-1.8,9.9-8,32.9-11.4,60.1H543c0,0.2,0.1,0.3,0.1,0.5C538.3,570.6,529.2,547.3,526.6,537.3" transform="matrix(-1.002425193786621, 0, 0, 1.002425193786621, 1244.2586669921875, 41.74093147982241)"/><path id="XMLID_88_" fill-rule="evenodd" clip-rule="evenodd" fill="#FFFFFF" d="M517.4,537.3h-7.6c2.8,17.8,17.8,76.5,10,127.5&#10;&#9;&#9;&#9;&#9;&#9;c-2.2,14.5-5.9,26.6-10.4,36.1c9.3-9.6,16.9-24.4,20.8-43.5C540.1,609.4,521,554.1,517.4,537.3" transform="matrix(-1.002425193786621, 0, 0, 1.002425193786621, 1244.2586669921875, 41.74093147982241)"/><path id="XMLID_87_" fill-rule="evenodd" clip-rule="evenodd" fill="#FFD275" d="M459.2,597.5c-2.5,20.4-3.5,43.1,0.2,64.5&#10;&#9;&#9;&#9;&#9;&#9;c5.5,31.7,19.1,51.9,34.1,57.2c21.7-5.3,41.2-25.4,49.1-57.2c2.5-10.1,3.6-20.6,3.6-30.9c0-11.5-1.3-22.9-3.2-33.6H459.2z" transform="matrix(-1.002425193786621, 0, 0, 1.002425193786621, 1244.2586669921875, 41.74093147982241)"/><path id="XMLID_86_" fill-rule="evenodd" clip-rule="evenodd" fill="#FFD275" d="M433.2,597.5c-2.7,19.1-3.5,40.1,0.6,59.9&#10;&#9;&#9;&#9;&#9;&#9;c4,19.2,11.5,33.9,20.8,43.5c-4.6-9.5-8.2-21.6-10.4-36.1c-3.4-22.3-2.5-46.1-0.1-67.3H433.2z" transform="matrix(-1.002425193786621, 0, 0, 1.002425193786621, 1244.2586669921875, 41.74093147982241)"/><path id="XMLID_85_" fill-rule="evenodd" clip-rule="evenodd" fill="#FFEBC4" d="M519.9,597.5c2.4,21.2,3.3,45-0.1,67.3&#10;&#9;&#9;&#9;&#9;&#9;c-2.2,14.5-5.9,26.6-10.4,36.1c9.3-9.6,16.9-24.4,20.8-43.5c4.1-19.8,3.2-40.8,0.6-59.9H519.9z" transform="matrix(-1.002425193786621, 0, 0, 1.002425193786621, 1244.2586669921875, 41.74093147982241)"/><path id="XMLID_84_" fill-rule="evenodd" clip-rule="evenodd" fill="#E6E6E8" d="M590.7,864.1h82.9c2.7,0,4.9-2.2,4.9-4.9&#10;&#9;&#9;&#9;&#9;&#9;c0-2.7-2.2-4.9-4.9-4.9h-82.9c-2.7,0-4.9,2.2-4.9,4.9C585.8,861.9,588,864.1,590.7,864.1" transform="matrix(-1, 0, 0, 1, 1222.1145567155427, 45.10844250012066)"/><path id="XMLID_83_" fill-rule="evenodd" clip-rule="evenodd" fill="#F0EEEE" d="M648,857c-4.2-4.1-10.1-6.7-10.1-21.1l0-74.2&#10;&#9;&#9;&#9;&#9;&#9;c0-15.4,8.2-23,17.1-29.2h-45.8c8.9,6.2,17.1,13.8,17.1,29.2l0,74.2c0,14.4-6,17-10.1,21.1C622.3,862.6,640.8,860.7,648,857" transform="matrix(-1, 0, 0, 1, 1222.1145567155427, 45.10844250012066)"/><path id="XMLID_82_" fill-rule="evenodd" clip-rule="evenodd" fill="#E6E6E8" d="M610,733.1c8.6,6.1,16.3,13.7,16.3,28.6l0,74.2&#10;&#9;&#9;&#9;&#9;&#9;c0,11.3-3.7,15.3-7.3,18.5c12.6,0.8,11.8-18.7,11.8-24.6v-74.2c0-6.8,0-19.2-4.4-23.1C622.8,729.4,615.4,734.4,610,733.1" transform="matrix(-1, 0, 0, 1, 1222.1145567155427, 45.10844250012066)"/><path id="XMLID_81_" fill-rule="evenodd" clip-rule="evenodd" fill="#F0EEEE" d="M590.7,864.1h82.9c2.7,0,4.9-2.2,4.9-4.9h-92.7&#10;&#9;&#9;&#9;&#9;&#9;C585.8,861.9,588,864.1,590.7,864.1" transform="matrix(-1, 0, 0, 1, 1222.1145567155427, 45.10844250012066)"/><path id="XMLID_80_" fill-rule="evenodd" clip-rule="evenodd" fill="#E6E6E8" d="M670.9,579.7h-77.6c-4,15.1-24.9,65.1-14,108.4&#10;&#9;&#9;&#9;&#9;&#9;c8.1,32.5,30.1,51,52.8,51c22.7,0,44.7-18.5,52.8-51C695.8,644.8,674.9,594.8,670.9,579.7" transform="matrix(-1, 0, 0, 1, 1222.1145567155427, 45.10844250012066)"/><path id="XMLID_79_" fill-rule="evenodd" clip-rule="evenodd" fill="#F0EEEE" d="M608,579.7h-6.6&#10;&#9;&#9;&#9;&#9;&#9;c-3.2,14.6-19.8,62.7-11.1,104.5c3.4,16.7,10,29.5,18.1,37.9c-4-8.2-7.1-18.8-9.1-31.4C592.5,646.3,605.5,595.2,608,579.7" transform="matrix(-1, 0, 0, 1, 1222.1145567155427, 45.10844250012066)"/><path id="XMLID_78_" fill-rule="evenodd" clip-rule="evenodd" fill="#91002D" d="M579,632c-3.2,17.7-4.4,37.5,0.3,56.1&#10;&#9;&#9;&#9;&#9;&#9;c8.1,32.5,30.1,51,52.8,51c22.7,0,44.7-18.5,52.8-51c4.7-18.6,3.5-38.4,0.3-56.1H579z" transform="matrix(-1, 0, 0, 1, 1222.1145567155427, 45.10844250012066)"/><path id="XMLID_77_" fill-rule="evenodd" clip-rule="evenodd" fill="#F0EEEE" d="M670.9,579.7h-48.7c-1.6,8.6-7,28.7-9.9,52.3&#10;&#9;&#9;&#9;&#9;&#9;h73c0,0.2,0.1,0.3,0.1,0.5C681.1,608.6,673.2,588.4,670.9,579.7" transform="matrix(-1, 0, 0, 1, 1222.1145567155427, 45.10844250012066)"/><path id="XMLID_76_" fill-rule="evenodd" clip-rule="evenodd" fill="#FFFFFF" d="M662.9,579.7h-6.6&#10;&#9;&#9;&#9;&#9;&#9;c2.5,15.5,15.5,66.6,8.7,110.9c-1.9,12.6-5.1,23.2-9.1,31.4c8.1-8.4,14.7-21.2,18.1-37.9C682.7,642.4,666.1,594.3,662.9,579.7" transform="matrix(-1, 0, 0, 1, 1222.1145567155427, 45.10844250012066)"/><path id="XMLID_75_" fill-rule="evenodd" clip-rule="evenodd" fill="#BB0B3F" d="M612.3,632c-2.2,17.7-3,37.5,0.2,56.1&#10;&#9;&#9;&#9;&#9;&#9;c4.8,27.6,16.6,45.2,29.7,49.8c18.9-4.6,35.8-22.1,42.8-49.8c2.2-8.8,3.1-17.9,3.1-26.9c0-10-1.1-19.9-2.8-29.2H612.3z" transform="matrix(-1, 0, 0, 1, 1222.1145567155427, 45.10844250012066)"/><path id="XMLID_74_" fill-rule="evenodd" clip-rule="evenodd" fill="#BB0B3F" d="M589.7,632c-2.3,16.6-3,34.9,0.5,52.1&#10;&#9;&#9;&#9;&#9;&#9;c3.4,16.7,10,29.5,18.1,37.9c-4-8.2-7.1-18.8-9.1-31.4c-3-19.4-2.1-40.1-0.1-58.6H589.7z" transform="matrix(-1, 0, 0, 1, 1222.1145567155427, 45.10844250012066)"/><path id="XMLID_73_" fill-rule="evenodd" clip-rule="evenodd" fill="#E7224B" d="M665.1,632c2.1,18.4,2.9,39.2-0.1,58.6&#10;&#9;&#9;&#9;&#9;&#9;c-1.9,12.6-5.1,23.2-9.1,31.4c8.1-8.4,14.7-21.2,18.1-37.9c3.6-17.2,2.8-35.5,0.5-52.1H665.1z" transform="matrix(-1, 0, 0, 1, 1222.1145567155427, 45.10844250012066)"/><path d="M 762.799988 905.099976 H 804.799988 V 979.599976 H 762.799988 V 905.099976 Z" id="XMLID_116_" fill-rule="evenodd" clip-rule="evenodd" fill="#8D633B" transform="matrix(-1, 0, 0, 1, 1242.9338545670053, 1.734940097923527)"/><path d="M 0 905.099976 H 762.799988 V 979.599976 H 0 V 905.099976 Z" id="XMLID_118_" fill-rule="evenodd" clip-rule="evenodd" fill="#6A4B29" transform="matrix(-1, 0, 0, 1, 1242.9338545670053, 1.734940097923527)"/><path id="XMLID_211_" fill-rule="evenodd" clip-rule="evenodd" fill="#757C29" d="M182,715.4c0.1,0,0.1,0,0.2,0&#10;&#9;&#9;&#9;c11,3.1,14.7,13.8,15.7,24.5c2.9,1.1-1.8,1.4,2.6,0.2c0.3-0.1,2.1-1.3,2.2-1.4c2,5,2.8,8.6,8.8,10.8l-0.3-10&#10;&#9;&#9;&#9;c8.5,5.6,12.8-0.1,16.2,14.6c7.2-1.3,5.4-9.7,5-16l5.3-2.1c-1.9-2.9-2.2-2.1-2.9-5.1c7.4,0.5,11.1-1.4,7.5-8.2&#10;&#9;&#9;&#9;c5-1.5,9.5-2.7,12-6.7l-5.7-3.9l5.5-6.7c-5.8-4.4-5.9-0.4-11.1-5.8l-1.5-1.7c-5,1.5-14.9,5.5-19.9,3.5&#10;&#9;&#9;&#9;c0.7-12.6,20.9-7.8,24.2-15.8c3.5-8.3,1.9-2.7,5.4-9.3c-1.6-4.3-0.3-0.5-3.6-3.8c1.1-1.6,2.7-3.7,2.8-6.1c0.2-5.5,0.5-1.3-3.6-4.9&#10;&#9;&#9;&#9;c4.5-12.5,1-6.2-1-13.1c-0.6-1.9,0.2-1.7-1-4.6c-4.1,0.8-8.5,4-11.1,6.7c-2.4-2.9-1.1-6.4-12,5.8c-4.8,5.4-6.6,12.6-15.2,10.5&#10;&#9;&#9;&#9;c1-11.7,17.2-15,18.5-21.5c0.7-3.6-1.2,2,0-3.8c0.2-1.1,1.5-4,1.9-5.6c-5.2-4-3.4-5.2-6.1-11.4c-2.2-0.4-3.6,0.7-5.5,1.3&#10;&#9;&#9;&#9;c-1.2-11.3-5.2-10.2-8.8-10.3c-0.5-3.3-1.2-6.3-3-8.6c-1.9-2.5-0.9-0.7-2.6-2.7l-2.7-4l0-0.1l-0.1,0.1l0-0.1l0,0.1l-3.7,3.1&#10;&#9;&#9;&#9;c-2.1,1.5-0.7,0.1-3.2,1.9c-2.4,1.7-3.9,4.4-5.2,7.4c-3.4-0.9-7-3-11.3,7.5c-1.7-1.2-2.7-2.6-4.9-2.8c-4.3,5.2-2.9,6.9-9,9.3&#10;&#9;&#9;&#9;c0,1.7,0.4,4.8,0.3,6c-0.5,5.9-0.7,0.1-1,3.7c-0.6,6.6,14.1,14.3,11.8,25.8c-8.8-0.3-8.6-7.8-11.7-14.3c-7-14.7-6.8-11-9.9-8.8&#10;&#9;&#9;&#9;c-1.8-3.3-5.1-7.6-8.9-9.5c-2,2.5-1.2,2.5-2.3,4.2c-3.9,6-5.5-1-4.6,12.3c-4.9,2.3-3.5-1.7-4.8,3.7c-0.6,2.3,0.4,4.8,1,6.6&#10;&#9;&#9;&#9;c-4.2,2.2-1.8-1-4.6,2.7c1.6,7.3,1.6,1.5,2.6,10.4c1,8.6,21.7,9.6,18.9,21.9c-5.4,0.5-13.7-6.1-18.1-8.9l-1.9,1.2&#10;&#9;&#9;&#9;c-6.5,3.7-5.4-0.1-12.2,2.5l3.5,8l-6.5,2.2c1.3,4.6,5.3,6.9,9.7,9.8c-5.3,5.5-2.3,8.4,4.9,9.9c-1.6,2.7-1.6,1.8-4.2,4l4.5,3.5&#10;&#9;&#9;&#9;c-2.2,5.9-6.2,13.5,0.4,16.7c7.4-13.2,9.9-6.6,19.6-9.6l-3.1,9.6c6.4-0.5,8.2-3.7,11.4-8c0.1,0.1,1.4,1.7,1.7,1.9&#10;&#9;&#9;&#9;c3.9,2.4-0.5,0.8,2.6,0.5c3.9-10.1,10.4-19.3,21.9-19.2C181.9,715.4,181.9,715.4,182,715.4" transform="matrix(-1, 0, 0, 1, 1242.9338545670053, 1.734940097923527)"/><path id="XMLID_238_" fill-rule="evenodd" clip-rule="evenodd" fill="#BFBF52" d="M201.9,777.4c0,16.1,13,29.1,29.1,29.1&#10;&#9;&#9;&#9;c11.3,0,21.1-6.5,25.9-15.9c2-4,3.2-8.5,3.2-13.2c0-16.1-13-29.1-29.1-29.1c-4.8,0-9.3,1.1-13.2,3.2&#10;&#9;&#9;&#9;C208.4,756.3,201.9,766.1,201.9,777.4" transform="matrix(-1, 0, 0, 1, 1242.9338545670053, 1.734940097923527)"/><path id="XMLID_237_" fill-rule="evenodd" clip-rule="evenodd" fill="#DBD34E" d="M214.6,764.7c0,16.1,13,29.1,29.1,29.1&#10;&#9;&#9;&#9;c4.8,0,9.3-1.1,13.2-3.2c2-4,3.2-8.5,3.2-13.2c0-16.1-13-29.1-29.1-29.1c-4.8,0-9.3,1.1-13.2,3.2&#10;&#9;&#9;&#9;C215.8,755.4,214.6,759.9,214.6,764.7" transform="matrix(-1, 0, 0, 1, 1242.9338545670053, 1.734940097923527)"/><path id="XMLID_236_" fill-rule="evenodd" clip-rule="evenodd" fill="#BFBF52" d="M138.8,777.4c0,16.1,13,29.1,29.1,29.1&#10;&#9;&#9;&#9;c11.3,0,21.1-6.5,25.9-15.9c2-4,3.2-8.5,3.2-13.2c0-16.1-13-29.1-29.1-29.1c-4.8,0-9.3,1.1-13.2,3.2&#10;&#9;&#9;&#9;C145.3,756.3,138.8,766.1,138.8,777.4" transform="matrix(-1, 0, 0, 1, 1242.9338545670053, 1.734940097923527)"/><path id="XMLID_235_" fill-rule="evenodd" clip-rule="evenodd" fill="#DBD34E" d="M151.5,764.7c0,16.1,13,29.1,29.1,29.1&#10;&#9;&#9;&#9;c4.8,0,9.3-1.1,13.2-3.2c2-4,3.2-8.5,3.2-13.2c0-16.1-13-29.1-29.1-29.1c-4.8,0-9.3,1.1-13.2,3.2&#10;&#9;&#9;&#9;C152.7,755.4,151.5,759.9,151.5,764.7" transform="matrix(-1, 0, 0, 1, 1242.9338545670053, 1.734940097923527)"/><path id="XMLID_234_" fill-rule="evenodd" clip-rule="evenodd" fill="#BFBF52" d="M75.7,777.4c0,16.1,13,29.1,29.1,29.1&#10;&#9;&#9;&#9;c11.3,0,21.1-6.5,25.9-15.9c2-4,3.2-8.5,3.2-13.2c0-16.1-13-29.1-29.1-29.1c-4.8,0-9.3,1.1-13.2,3.2&#10;&#9;&#9;&#9;C82.2,756.3,75.7,766.1,75.7,777.4" transform="matrix(-1, 0, 0, 1, 1242.9338545670053, 1.734940097923527)"/><path id="XMLID_233_" fill-rule="evenodd" clip-rule="evenodd" fill="#DBD34E" d="M88.4,764.7c0,16.1,13,29.1,29.1,29.1&#10;&#9;&#9;&#9;c4.8,0,9.3-1.1,13.2-3.2c2-4,3.2-8.5,3.2-13.2c0-16.1-13-29.1-29.1-29.1c-4.8,0-9.3,1.1-13.2,3.2&#10;&#9;&#9;&#9;C89.6,755.4,88.4,759.9,88.4,764.7" transform="matrix(-1, 0, 0, 1, 1242.9338545670053, 1.734940097923527)"/><path id="XMLID_232_" fill-rule="evenodd" clip-rule="evenodd" fill="#BFBF52" d="M12.6,777.4c0,16.1,13,29.1,29.1,29.1&#10;&#9;&#9;&#9;c11.3,0,21.1-6.5,25.9-15.9c2-4,3.2-8.5,3.2-13.2c0-16.1-13-29.1-29.1-29.1c-4.8,0-9.3,1.1-13.2,3.2&#10;&#9;&#9;&#9;C19.1,756.3,12.6,766.1,12.6,777.4" transform="matrix(-1, 0, 0, 1, 1242.9338545670053, 1.734940097923527)"/><path id="XMLID_231_" fill-rule="evenodd" clip-rule="evenodd" fill="#DBD34E" d="M25.3,764.7c0,16.1,13,29.1,29.1,29.1&#10;&#9;&#9;&#9;c4.8,0,9.3-1.1,13.2-3.2c2-4,3.2-8.5,3.2-13.2c0-16.1-13-29.1-29.1-29.1c-4.8,0-9.3,1.1-13.2,3.2&#10;&#9;&#9;&#9;C26.5,755.4,25.3,759.9,25.3,764.7" transform="matrix(-1, 0, 0, 1, 1242.9338545670053, 1.734940097923527)"/><path id="XMLID_230_" fill-rule="evenodd" clip-rule="evenodd" fill="#BFBF52" d="M138.8,880.6c0,16.1,13,29.1,29.1,29.1&#10;&#9;&#9;&#9;c11.3,0,21.1-6.5,25.9-15.9c2-4,3.2-8.5,3.2-13.2c0-16.1-13-29.1-29.1-29.1c-4.8,0-9.3,1.1-13.2,3.2&#10;&#9;&#9;&#9;C145.3,859.4,138.8,869.2,138.8,880.6" transform="matrix(-1, 0, 0, 1, 1242.9338545670053, 1.734940097923527)"/><path id="XMLID_229_" fill-rule="evenodd" clip-rule="evenodd" fill="#DBD34E" d="M151.5,867.8c0,16.1,13,29.1,29.1,29.1&#10;&#9;&#9;&#9;c4.8,0,9.3-1.1,13.2-3.2c2-4,3.2-8.5,3.2-13.2c0-16.1-13-29.1-29.1-29.1c-4.8,0-9.3,1.1-13.2,3.2&#10;&#9;&#9;&#9;C152.7,858.6,151.5,863.1,151.5,867.8" transform="matrix(-1, 0, 0, 1, 1242.9338545670053, 1.734940097923527)"/><path id="XMLID_228_" fill-rule="evenodd" clip-rule="evenodd" fill="#BFBF52" d="M75.7,880.6c0,16.1,13,29.1,29.1,29.1&#10;&#9;&#9;&#9;c11.3,0,21.1-6.5,25.9-15.9c2-4,3.2-8.5,3.2-13.2c0-16.1-13-29.1-29.1-29.1c-4.8,0-9.3,1.1-13.2,3.2&#10;&#9;&#9;&#9;C82.2,859.4,75.7,869.2,75.7,880.6" transform="matrix(-1, 0, 0, 1, 1242.9338545670053, 1.734940097923527)"/><path id="XMLID_227_" fill-rule="evenodd" clip-rule="evenodd" fill="#DBD34E" d="M88.4,867.8c0,16.1,13,29.1,29.1,29.1&#10;&#9;&#9;&#9;c4.8,0,9.3-1.1,13.2-3.2c2-4,3.2-8.5,3.2-13.2c0-16.1-13-29.1-29.1-29.1c-4.8,0-9.3,1.1-13.2,3.2&#10;&#9;&#9;&#9;C89.6,858.6,88.4,863.1,88.4,867.8" transform="matrix(-1, 0, 0, 1, 1242.9338545670053, 1.734940097923527)"/><path id="XMLID_226_" fill-rule="evenodd" clip-rule="evenodd" fill="#BFBF52" d="M107.2,931.6c0,16.1,13,29.1,29.1,29.1&#10;&#9;&#9;&#9;c11.3,0,21.1-6.5,25.9-15.9c2-4,3.2-8.5,3.2-13.2c0-16.1-13-29.1-29.1-29.1c-4.8,0-9.3,1.1-13.2,3.2&#10;&#9;&#9;&#9;C113.7,910.5,107.2,920.3,107.2,931.6" transform="matrix(-1, 0, 0, 1, 1242.9338545670053, 1.734940097923527)"/><path id="XMLID_225_" fill-rule="evenodd" clip-rule="evenodd" fill="#DBD34E" d="M120,918.9c0,16.1,13,29.1,29.1,29.1&#10;&#9;&#9;&#9;c4.8,0,9.3-1.1,13.2-3.2c2-4,3.2-8.5,3.2-13.2c0-16.1-13-29.1-29.1-29.1c-4.8,0-9.3,1.1-13.2,3.2C121.1,909.6,120,914.1,120,918.9&#10;&#9;&#9;&#9;" transform="matrix(-1, 0, 0, 1, 1242.9338545670053, 1.734940097923527)"/><path id="XMLID_224_" fill-rule="evenodd" clip-rule="evenodd" fill="#BFBF52" d="M169.8,829.5c0,16.1,13,29.1,29.1,29.1&#10;&#9;&#9;&#9;c11.3,0,21.1-6.5,25.9-15.9c2-4,3.2-8.5,3.2-13.2c0-16.1-13-29.1-29.1-29.1c-4.8,0-9.3,1.1-13.2,3.2&#10;&#9;&#9;&#9;C176.2,808.4,169.8,818.2,169.8,829.5" transform="matrix(-1, 0, 0, 1, 1242.9338545670053, 1.734940097923527)"/><path id="XMLID_223_" fill-rule="evenodd" clip-rule="evenodd" fill="#DBD34E" d="M182.5,816.8c0,16.1,13,29.1,29.1,29.1&#10;&#9;&#9;&#9;c4.8,0,9.3-1.1,13.2-3.2c2-4,3.2-8.5,3.2-13.2c0-16.1-13-29.1-29.1-29.1c-4.8,0-9.3,1.1-13.2,3.2&#10;&#9;&#9;&#9;C183.6,807.5,182.5,812,182.5,816.8" transform="matrix(-1, 0, 0, 1, 1242.9338545670053, 1.734940097923527)"/><path id="XMLID_222_" fill-rule="evenodd" clip-rule="evenodd" fill="#BFBF52" d="M106.7,829.5c0,16.1,13,29.1,29.1,29.1&#10;&#9;&#9;&#9;c11.3,0,21.1-6.5,25.9-15.9c2-4,3.2-8.5,3.2-13.2c0-16.1-13-29.1-29.1-29.1c-4.8,0-9.3,1.1-13.2,3.2&#10;&#9;&#9;&#9;C113.1,808.4,106.7,818.2,106.7,829.5" transform="matrix(-1, 0, 0, 1, 1242.9338545670053, 1.734940097923527)"/><path id="XMLID_221_" fill-rule="evenodd" clip-rule="evenodd" fill="#DBD34E" d="M119.4,816.8c0,16.1,13,29.1,29.1,29.1&#10;&#9;&#9;&#9;c4.8,0,9.3-1.1,13.2-3.2c2-4,3.2-8.5,3.2-13.2c0-16.1-13-29.1-29.1-29.1c-4.8,0-9.3,1.1-13.2,3.2&#10;&#9;&#9;&#9;C120.5,807.5,119.4,812,119.4,816.8" transform="matrix(-1, 0, 0, 1, 1242.9338545670053, 1.734940097923527)"/><path id="XMLID_220_" fill-rule="evenodd" clip-rule="evenodd" fill="#BFBF52" d="M42.8,829.5c0,16.1,13,29.1,29.1,29.1&#10;&#9;&#9;&#9;c11.3,0,21.1-6.5,25.9-15.9c2-4,3.2-8.5,3.2-13.2c0-16.1-13-29.1-29.1-29.1c-4.8,0-9.3,1.1-13.2,3.2&#10;&#9;&#9;&#9;C49.2,808.4,42.8,818.2,42.8,829.5" transform="matrix(-1, 0, 0, 1, 1242.9338545670053, 1.734940097923527)"/><path id="XMLID_219_" fill-rule="evenodd" clip-rule="evenodd" fill="#DBD34E" d="M55.5,816.8c0,16.1,13,29.1,29.1,29.1&#10;&#9;&#9;&#9;c4.8,0,9.3-1.1,13.2-3.2c2-4,3.2-8.5,3.2-13.2c0-16.1-13-29.1-29.1-29.1c-4.8,0-9.3,1.1-13.2,3.2C56.6,807.5,55.5,812,55.5,816.8" transform="matrix(-1, 0, 0, 1, 1242.9338545670053, 1.734940097923527)"/><path id="XMLID_218_" fill-rule="evenodd" clip-rule="evenodd" fill="#BFBF52" d="M169.8,726c0,16.1,13,29.1,29.1,29.1&#10;&#9;&#9;&#9;c11.3,0,21.1-6.5,25.9-15.9c2-4,3.2-8.5,3.2-13.2c0-16.1-13-29.1-29.1-29.1c-4.8,0-9.3,1.1-13.2,3.2&#10;&#9;&#9;&#9;C176.2,704.9,169.8,714.7,169.8,726" transform="matrix(-1, 0, 0, 1, 1242.9338545670053, 1.734940097923527)"/><path id="XMLID_217_" fill-rule="evenodd" clip-rule="evenodd" fill="#DBD34E" d="M182.5,713.3c0,16.1,13,29.1,29.1,29.1&#10;&#9;&#9;&#9;c4.8,0,9.3-1.1,13.2-3.2c2-4,3.2-8.5,3.2-13.2c0-16.1-13-29.1-29.1-29.1c-4.8,0-9.3,1.1-13.2,3.2&#10;&#9;&#9;&#9;C183.6,704.1,182.5,708.6,182.5,713.3" transform="matrix(-1, 0, 0, 1, 1242.9338545670053, 1.734940097923527)"/><path id="XMLID_216_" fill-rule="evenodd" clip-rule="evenodd" fill="#BFBF52" d="M106.7,726c0,16.1,13,29.1,29.1,29.1&#10;&#9;&#9;&#9;c11.3,0,21.1-6.5,25.9-15.9c2-4,3.2-8.5,3.2-13.2c0-16.1-13-29.1-29.1-29.1c-4.8,0-9.3,1.1-13.2,3.2&#10;&#9;&#9;&#9;C113.1,704.9,106.7,714.7,106.7,726" transform="matrix(-1, 0, 0, 1, 1242.9338545670053, 1.734940097923527)"/><path id="XMLID_215_" fill-rule="evenodd" clip-rule="evenodd" fill="#DBD34E" d="M119.4,713.3c0,16.1,13,29.1,29.1,29.1&#10;&#9;&#9;&#9;c4.8,0,9.3-1.1,13.2-3.2c2-4,3.2-8.5,3.2-13.2c0-16.1-13-29.1-29.1-29.1c-4.8,0-9.3,1.1-13.2,3.2&#10;&#9;&#9;&#9;C120.5,704.1,119.4,708.6,119.4,713.3" transform="matrix(-1, 0, 0, 1, 1242.9338545670053, 1.734940097923527)"/><path id="XMLID_214_" fill-rule="evenodd" clip-rule="evenodd" fill="#BFBF52" d="M43.6,726c0,16.1,13,29.1,29.1,29.1&#10;&#9;&#9;&#9;c11.3,0,21.1-6.5,25.9-15.9c2-4,3.2-8.5,3.2-13.2c0-16.1-13-29.1-29.1-29.1c-4.8,0-9.3,1.1-13.2,3.2C50,704.9,43.6,714.7,43.6,726&#10;&#9;&#9;&#9;" transform="matrix(-1, 0, 0, 1, 1242.9338545670053, 1.734940097923527)"/><path id="XMLID_213_" fill-rule="evenodd" clip-rule="evenodd" fill="#DBD34E" d="M56.3,713.3c0,16.1,13,29.1,29.1,29.1&#10;&#9;&#9;&#9;c4.8,0,9.3-1.1,13.2-3.2c2-4,3.2-8.5,3.2-13.2c0-16.1-13-29.1-29.1-29.1c-4.8,0-9.3,1.1-13.2,3.2&#10;&#9;&#9;&#9;C57.4,704.1,56.3,708.6,56.3,713.3" transform="matrix(-1, 0, 0, 1, 1242.9338545670053, 1.734940097923527)"/><path id="XMLID_212_" fill-rule="evenodd" clip-rule="evenodd" fill="#888F31" d="M111.5,703.4c0.1,0,0.1,0.1,0.2,0.1&#10;&#9;&#9;&#9;c11.6,8.2,24.7,3.5,35.7-3.9c3.2,1.9,0-2.8,2.2,2.4c0.2,0.4,0.4,3,0.4,3.2c6.3-2,10.4-4,17.2,0.1l-9.9,7.5&#10;&#9;&#9;&#9;c12,3.9,9.8,12.4,26.6,4.2c4.4,7.9-5.2,12.7-11.5,17.1l2.1,6.7c-4.2,0.5-3.6-0.5-7.1,1.1c6.2,6.7,7.2,11.8-2.1,13.5&#10;&#9;&#9;&#9;c2.4,6,4.8,11.2,2.8,16.8l-8.2-2.4l-2.2,10.5c-8.7-2.2-4.9-5.3-14.1-6.2l-2.8-0.1c-2.5-6-6.2-18.6-12-21.9&#10;&#9;&#9;&#9;c-11.5,10.4,8.7,26.1,3.6,35.5c-5.3,9.7-1.2,3.9-4.7,12.4c-5.4,1.8-0.7,0.1-6.5-0.5c-0.7,2.3-1.5,5.5-3.7,7.4&#10;&#9;&#9;&#9;c-5.2,4.5-0.9,1.5-7.5,0.3c-8.6,14-5.2,5.8-13.4,9.1c-2.3,0.9-1.5,1.5-5.3,2.6c-2.5-4.6-2.7-11.2-2.2-15.9c-4.6,0-7,3.9-3.7-16&#10;&#9;&#9;&#9;c1.5-8.7,7-16.1-1.6-22.7c-10.5,10-1.1,28.2-6.4,34.4c-2.9,3.4,1-2.7-3.7,3c-0.9,1.1-2.7,4.5-3.9,6.2c-7.9-2-7.7,0.7-15.7,3&#10;&#9;&#9;&#9;c-2.1-1.8-2.1-3.9-3-6.4c-11.8,7.5-13.9,2.9-16.7-0.5c-3.5,2.1-6.9,3.7-10.5,3.8c-3.9,0.1-1.4-0.4-4.6-0.3l-5.9,0.5l-0.1,0.1&#10;&#9;&#9;&#9;l0-0.1l-0.1,0l0.1-0.1l0.2-5.9c-0.2-3.2-0.5-0.7-0.6-4.6c-0.2-3.6,1.2-7.1,3.1-10.8c-3.6-2.6-8.3-4.4-1.6-16.6&#10;&#9;&#9;&#9;c-2.5-0.7-4.6-0.6-6.5-2.6c1.7-8.2,4.4-8.1,1.9-15.9c1.6-1.4,4.9-3.3,6-4.3c5.4-5-0.5-0.8,2.7-3.9c5.9-5.7,24.7,2.5,33.9-8.6&#10;&#9;&#9;&#9;c-7.1-8.2-14.1-2.2-22.8-0.1c-19.6,4.6-15.9,1.9-16.2-2.7c-4.6,0.8-11.3,1-16-1.2c0.9-3.8,1.5-3.1,2.2-5.4&#10;&#9;&#9;&#9;c2.8-8.4-5.2-4.5,8.2-13.9c-1.5-6.5-4.3-2-0.2-7.5c1.8-2.3,4.9-3.4,7.2-4.2c-1.1-5.7-2.4-1-1-6.5c8.3-4.1,2.7,0.3,12.1-5.5&#10;&#9;&#9;&#9;c9.1-5.7,26.1,13.4,35.7,1.2c-3.7-5.6-16.5-8.5-22.6-10.6l-0.3-2.8c-1.4-9.1-4.3-5.1-7.1-13.7l10.4-2.9l-2.9-8&#10;&#9;&#9;&#9;c5.4-2.3,10.7-0.3,16.9,1.7c1.1-9.4,6.2-8.7,13.4-3c1.3-3.6,0.4-3,0.6-7.2l6.8,1.6c4-6.6,8.2-16.4,16.4-12.6&#10;&#9;&#9;&#9;c-7,17.3,1.3,14.6,6,26.3L106,648c4.5,6.5,2.8,10.7,1.2,17.2c0.2,0,2.8,0,3.2,0.2c5.3,1.9,0.4-1,2.5,2.1&#10;&#9;&#9;&#9;c-6.7,11.5-10.5,24.9-1.5,35.9C111.4,703.3,111.5,703.4,111.5,703.4" transform="matrix(-1, 0, 0, 1, 1242.9338545670053, 1.734940097923527)"/>
</svg>