<?xml version="1.0" encoding="utf-8"?>
<svg id="master-artboard" viewBox="0 0 1400 980" version="1.1" xmlns="http://www.w3.org/2000/svg" x="0px" y="0px" enable-background="new 0 0 1400 980" width="1400px" height="980px">
<g transform="matrix(1, 0, 0, 1, 1.5015642398000182, 0)">
			<path fill="#FFFFFF" d="M807.7,280.2l-6.5,0c5.8,46,19.7,167.8,15.8,208.9c-1.1,11.1-6.3,21.1-13.5,29.8&#10;&#9;&#9;&#9;&#9;c-16.2,19.4-40.4,30.1-65.7,30.1l-36,0c-25.2,0-49.5-10.8-65.6-30.2c-7.3-8.7-12.4-18.7-13.5-29.8&#10;&#9;&#9;&#9;&#9;c-3.9-41.2,10.4-162.9,16.2-208.9l-6.5,0c-2.4,17.8-21.4,159.6-16.8,209.6c3.3,35.5,42.5,59.7,68.3,71.8&#10;&#9;&#9;&#9;&#9;c13.7,6.5,22.4,20.4,22.4,35.6l-0.2,185.7c0,12.3-9,22.7-21.2,24.5l-34.5,5.1c-3.9,0.6-6.7,3.9-6.8,7.8v0c0,4.4,3.5,7.9,7.9,7.9&#10;&#9;&#9;&#9;&#9;l135.9,0.1c4.4,0,7.9-3.5,7.9-7.9v0c0-3.9-2.9-7.2-6.7-7.8l-34.5-5.1C742,805.5,733,795,733,782.8l0.2-185.7&#10;&#9;&#9;&#9;&#9;c0-15.2,8.7-29.1,22.4-35.5c25.8-12.1,65-36.2,68.4-71.7C828.8,439.9,810.1,298,807.7,280.2z"/>
			<path opacity="0.45" fill="#D6D9D4" d="M701.8,545.5c-24.7,0-47.6-10.6-62.9-28.9c-7.5-9.1-11.8-18.5-12.7-27.9&#10;&#9;&#9;&#9;&#9;c-4.1-44.3,13.2-184.3,16-206.8l155.5,0.2c2.8,22.5,19.8,162.5,15.6,206.8c-0.9,9.5-5.2,18.8-12.7,27.9&#10;&#9;&#9;&#9;&#9;c-15.3,18.3-38.2,28.8-62.9,28.8L701.8,545.5z"/>
			<path fill="#F0D656" d="M628.8,408.4c-2.6,32.7-4.2,63.4-2.6,80.2c0.9,9.5,5.1,18.8,12.7,27.9c15.2,18.4,38.2,28.9,62.9,28.9&#10;&#9;&#9;&#9;&#9;l36,0c24.7,0,47.7-10.5,62.9-28.8c7.5-9,11.8-18.4,12.7-27.9c1.8-19-0.3-55.7-3.5-93.2L628.8,408.4z" style="fill: rgb(161, 32, 0);"/>
		</g><path fill="#FFFFFF" d="M972,213.7l-6.2,1.9c18.9,42.4,67.7,154.8,75.9,195.3c2.2,10.9,0.2,22-4.3,32.5&#10;&#9;&#9;&#9;&#9;c-9.8,23.2-29.9,40.6-54.1,47.9l-34.4,10.4c-24.1,7.3-50.5,4.1-71.6-9.8c-9.5-6.3-17.3-14.3-21.6-24.6&#10;&#9;&#9;&#9;&#9;c-15.7-38.3-37.5-158.9-45.3-204.6l-6.2,1.9c2.8,17.7,25.9,159,44.9,205.4c13.5,33,58,44.7,86.2,48.9c15,2.2,27.3,13,31.8,27.5&#10;&#9;&#9;&#9;&#9;L1021,724c3.6,11.8-2,24.3-13.1,29.6l-31.6,14.9c-3.5,1.7-5.3,5.7-4.2,9.4l0,0c1.3,4.2,5.7,6.5,9.8,5.3l130.1-39.4&#10;&#9;&#9;&#9;&#9;c4.2-1.3,6.5-5.7,5.3-9.8v0c-1.1-3.7-4.8-6.1-8.7-5.5l-34.5,5.1c-12.1,1.8-23.8-5.6-27.3-17.3l-53.9-177.7&#10;&#9;&#9;&#9;&#9;c-4.4-14.5-0.1-30.3,11.1-40.5c21.1-19.1,51.7-53.5,44.6-88.5C1038.7,360.3,979.5,230,972,213.7z" transform="matrix(1, 0, 0, 1, 0, -2.1316282072803006e-14)"/><path opacity="0.45" fill="#D6D9D4" d="M947.9,498.3c-23.7,7.2-48.6,3.8-68.6-9.4c-9.8-6.5-16.6-14.2-20.2-23&#10;&#9;&#9;&#9;&#9;c-16.9-41.2-41-180.1-44.8-202.5l148.8-45.1c9.2,20.8,66.3,149.7,75.1,193.3c1.9,9.3,0.5,19.5-4.1,30.4&#10;&#9;&#9;&#9;&#9;c-9.3,22-28.2,38.7-51.8,45.9L947.9,498.3z" transform="matrix(1, 0, 0, 1, 0, -2.1316282072803006e-14)"/><path fill="#F0D656" d="M1021.2,358.1l-186.6,13.2c8,38.3,17,76.2,24.5,94.6c3.6,8.8,10.4,16.5,20.2,23&#10;&#9;&#9;&#9;&#9;c19.9,13.1,44.9,16.5,68.6,9.4l34.4-10.4c23.7-7.2,42.5-23.9,51.8-45.9c4.6-10.9,6-21.1,4.1-30.4&#10;&#9;&#9;&#9;&#9;C1035.7,399.2,1029.3,379.9,1021.2,358.1z" transform="matrix(1, 0, 0, 1, 0, -2.1316282072803006e-14)" style="fill: rgb(161, 32, 0);"/><path d="M 741.900024 421.100006 A 3 3 0 0 1 738.900024 424.100006 A 3 3 0 0 1 735.900024 421.100006 A 3 3 0 0 1 738.900024 418.100006 A 3 3 0 0 1 741.900024 421.100006 Z" fill="#FFFFFF" transform="matrix(1, 0, 0, 1, 0, -7.105427357601002e-15)"/><path d="M 758.899988 426.799988 A 1.1 1.1 0 0 1 757.799988 427.899988 A 1.1 1.1 0 0 1 756.699988 426.799988 A 1.1 1.1 0 0 1 757.799988 425.699988 A 1.1 1.1 0 0 1 758.899988 426.799988 Z" fill="#FFFFFF" transform="matrix(1, 0, 0, 1, 0, -7.105427357601002e-15)"/><path d="M 781.3 421.299988 A 3.8 3.8 0 0 1 777.5 425.099988 A 3.8 3.8 0 0 1 773.7 421.299988 A 3.8 3.8 0 0 1 777.5 417.499988 A 3.8 3.8 0 0 1 781.3 421.299988 Z" fill="#FFFFFF" transform="matrix(1, 0, 0, 1, 0, -7.105427357601002e-15)"/><path d="M 788.499976 446.799988 A 1.4 1.4 0 0 1 787.099976 448.199988 A 1.4 1.4 0 0 1 785.699976 446.799988 A 1.4 1.4 0 0 1 787.099976 445.399988 A 1.4 1.4 0 0 1 788.499976 446.799988 Z" fill="#FFFFFF" transform="matrix(1, 0, 0, 1, 0, -7.105427357601002e-15)"/><path d="M 772.600012 470.299988 A 7.9 7.9 0 0 1 764.700012 478.199988 A 7.9 7.9 0 0 1 756.800012 470.299988 A 7.9 7.9 0 0 1 764.700012 462.399988 A 7.9 7.9 0 0 1 772.600012 470.299988 Z" fill="#FFFFFF" transform="matrix(1, 0, 0, 1, 0, -7.105427357601002e-15)"/><path d="M 786.299988 480.200012 A 2.5 2.5 0 0 1 783.799988 482.700012 A 2.5 2.5 0 0 1 781.299988 480.200012 A 2.5 2.5 0 0 1 783.799988 477.700012 A 2.5 2.5 0 0 1 786.299988 480.200012 Z" fill="#FFFFFF" transform="matrix(1, 0, 0, 1, 0, -7.105427357601002e-15)"/><path d="M 770.400024 443 A 3 3 0 0 1 767.400024 446 A 3 3 0 0 1 764.400024 443 A 3 3 0 0 1 767.400024 440 A 3 3 0 0 1 770.400024 443 Z" fill="#FFFFFF" transform="matrix(1, 0, 0, 1, 0, -7.105427357601002e-15)"/><path d="M 739.200012 454.5 A 3 3 0 0 1 736.200012 457.5 A 3 3 0 0 1 733.200012 454.5 A 3 3 0 0 1 736.200012 451.5 A 3 3 0 0 1 739.200012 454.5 Z" fill="#FFFFFF" transform="matrix(1, 0, 0, 1, 0, -7.105427357601002e-15)"/><path d="M 721.099976 482.899994 A 3 3 0 0 1 718.099976 485.899994 A 3 3 0 0 1 715.099976 482.899994 A 3 3 0 0 1 718.099976 479.899994 A 3 3 0 0 1 721.099976 482.899994 Z" fill="#FFFFFF" transform="matrix(1, 0, 0, 1, 0, -7.105427357601002e-15)"/><path d="M 745.200025 506.5 A 6.3 6.3 0 0 1 738.900024 512.8 A 6.3 6.3 0 0 1 732.600024 506.5 A 6.3 6.3 0 0 1 738.900024 500.2 A 6.3 6.3 0 0 1 745.200025 506.5 Z" fill="#FFFFFF" transform="matrix(1, 0, 0, 1, 0, -7.105427357601002e-15)"/><path d="M 769.299988 506.5 A 3 3 0 0 1 766.299988 509.5 A 3 3 0 0 1 763.299988 506.5 A 3 3 0 0 1 766.299988 503.5 A 3 3 0 0 1 769.299988 506.5 Z" fill="#FFFFFF" transform="matrix(1, 0, 0, 1, 0, -7.105427357601002e-15)"/><path d="M 745.699976 485.899994 A 1.6 1.6 0 0 1 744.099976 487.499994 A 1.6 1.6 0 0 1 742.499976 485.899994 A 1.6 1.6 0 0 1 744.099976 484.299994 A 1.6 1.6 0 0 1 745.699976 485.899994 Z" fill="#FFFFFF" transform="matrix(1, 0, 0, 1, 0, -7.105427357601002e-15)"/><path d="M 714.599976 444.100006 A 2.5 2.5 0 0 1 712.099976 446.600006 A 2.5 2.5 0 0 1 709.599976 444.100006 A 2.5 2.5 0 0 1 712.099976 441.600006 A 2.5 2.5 0 0 1 714.599976 444.100006 Z" fill="#FFFFFF" transform="matrix(1, 0, 0, 1, 0, -7.105427357601002e-15)"/><path d="M 710.800024 507 A 1.4 1.4 0 0 1 709.400024 508.4 A 1.4 1.4 0 0 1 708.000024 507 A 1.4 1.4 0 0 1 709.400024 505.6 A 1.4 1.4 0 0 1 710.800024 507 Z" fill="#FFFFFF" transform="matrix(1, 0, 0, 1, 0, -7.105427357601002e-15)"/><path d="M 698.700012 524.599976 A 2.5 2.5 0 0 1 696.200012 527.099976 A 2.5 2.5 0 0 1 693.700012 524.599976 A 2.5 2.5 0 0 1 696.200012 522.099976 A 2.5 2.5 0 0 1 698.700012 524.599976 Z" fill="#FFFFFF" transform="matrix(1, 0, 0, 1, 0, -7.105427357601002e-15)"/><path d="M 715.100012 535 A 1.9 1.9 0 0 1 713.200012 536.9 A 1.9 1.9 0 0 1 711.300012 535 A 1.9 1.9 0 0 1 713.200012 533.1 A 1.9 1.9 0 0 1 715.100012 535 Z" fill="#FFFFFF" transform="matrix(1, 0, 0, 1, 0, -7.105427357601002e-15)"/><path d="M 746.8 534.099976 A 3.8 3.8 0 0 1 743 537.899976 A 3.8 3.8 0 0 1 739.2 534.099976 A 3.8 3.8 0 0 1 743 530.299976 A 3.8 3.8 0 0 1 746.8 534.099976 Z" fill="#FFFFFF" transform="matrix(1, 0, 0, 1, 0, -7.105427357601002e-15)"/><path d="M 771 528.900024 A 2.5 2.5 0 0 1 768.5 531.400024 A 2.5 2.5 0 0 1 766 528.900024 A 2.5 2.5 0 0 1 768.5 526.400024 A 2.5 2.5 0 0 1 771 528.900024 Z" fill="#FFFFFF" transform="matrix(1, 0, 0, 1, 0, -7.105427357601002e-15)"/><path d="M 792.299988 506.5 A 3 3 0 0 1 789.299988 509.5 A 3 3 0 0 1 786.299988 506.5 A 3 3 0 0 1 789.299988 503.5 A 3 3 0 0 1 792.299988 506.5 Z" fill="#FFFFFF" transform="matrix(1, 0, 0, 1, 0, -7.105427357601002e-15)"/><path d="M 798.300012 432.799988 A 1.6 1.6 0 0 1 796.700012 434.399988 A 1.6 1.6 0 0 1 795.100012 432.799988 A 1.6 1.6 0 0 1 796.700012 431.199988 A 1.6 1.6 0 0 1 798.300012 432.799988 Z" fill="#FFFFFF" transform="matrix(1, 0, 0, 1, 0, -7.105427357601002e-15)"/><path d="M 806.1 464.899994 A 3.6 3.6 0 0 1 802.5 468.499994 A 3.6 3.6 0 0 1 798.9 464.899994 A 3.6 3.6 0 0 1 802.5 461.299994 A 3.6 3.6 0 0 1 806.1 464.899994 Z" fill="#FFFFFF" transform="matrix(1, 0, 0, 1, 0, -7.105427357601002e-15)"/><path d="M 866.799976 435.600006 A 2.7 2.7 0 0 1 864.099976 438.300006 A 2.7 2.7 0 0 1 861.399976 435.600006 A 2.7 2.7 0 0 1 864.099976 432.900006 A 2.7 2.7 0 0 1 866.799976 435.600006 Z" fill="#FFFFFF" transform="matrix(1, 0, 0, 1, 0, -7.105427357601002e-15)"/><path d="M 862.400012 413.700012 A 2.7 2.7 0 0 1 859.700012 416.400012 A 2.7 2.7 0 0 1 857.000012 413.700012 A 2.7 2.7 0 0 1 859.700012 411.000012 A 2.7 2.7 0 0 1 862.400012 413.700012 Z" fill="#FFFFFF" transform="matrix(1, 0, 0, 1, 0, -7.105427357601002e-15)"/><path d="M 861.800024 398.100006 A 1.9 1.9 0 0 1 859.900024 400.000006 A 1.9 1.9 0 0 1 858.000024 398.100006 A 1.9 1.9 0 0 1 859.900024 396.200006 A 1.9 1.9 0 0 1 861.800024 398.100006 Z" fill="#FFFFFF" transform="matrix(1, 0, 0, 1, 0, -7.105427357601002e-15)"/><path d="M 883.199988 392.600006 A 7.9 7.9 0 0 1 875.299988 400.500006 A 7.9 7.9 0 0 1 867.399988 392.600006 A 7.9 7.9 0 0 1 875.299988 384.700006 A 7.9 7.9 0 0 1 883.199988 392.600006 Z" fill="#FFFFFF" transform="matrix(1, 0, 0, 1, 0, -7.105427357601002e-15)"/><path d="M 851.5 381.600006 A 2.5 2.5 0 0 1 849 384.100006 A 2.5 2.5 0 0 1 846.5 381.600006 A 2.5 2.5 0 0 1 849 379.100006 A 2.5 2.5 0 0 1 851.5 381.600006 Z" fill="#FFFFFF" transform="matrix(1, 0, 0, 1, 0, -7.105427357601002e-15)"/><path d="M 887.099976 415.600006 A 2.5 2.5 0 0 1 884.599976 418.100006 A 2.5 2.5 0 0 1 882.099976 415.600006 A 2.5 2.5 0 0 1 884.599976 413.100006 A 2.5 2.5 0 0 1 887.099976 415.600006 Z" fill="#FFFFFF" transform="matrix(1, 0, 0, 1, 0, -7.105427357601002e-15)"/><path d="M 909.5 396.700012 A 5.5 5.5 0 0 1 904 402.200012 A 5.5 5.5 0 0 1 898.5 396.700012 A 5.5 5.5 0 0 1 904 391.200012 A 5.5 5.5 0 0 1 909.5 396.700012 Z" fill="#FFFFFF" transform="matrix(1, 0, 0, 1, 0, -7.105427357601002e-15)"/><path d="M 922.100024 386.799988 A 2.7 2.7 0 0 1 919.400024 389.499988 A 2.7 2.7 0 0 1 916.700024 386.799988 A 2.7 2.7 0 0 1 919.400024 384.099988 A 2.7 2.7 0 0 1 922.100024 386.799988 Z" fill="#FFFFFF" transform="matrix(1, 0, 0, 1, 0, -7.105427357601002e-15)"/><path d="M 898.000024 378.600006 A 1.1 1.1 0 0 1 896.900024 379.700006 A 1.1 1.1 0 0 1 895.800024 378.600006 A 1.1 1.1 0 0 1 896.900024 377.500006 A 1.1 1.1 0 0 1 898.000024 378.600006 Z" fill="#FFFFFF" transform="matrix(1, 0, 0, 1, 0, -7.105427357601002e-15)"/><path d="M 915.5 414.5 A 3 3 0 0 1 912.5 417.5 A 3 3 0 0 1 909.5 414.5 A 3 3 0 0 1 912.5 411.5 A 3 3 0 0 1 915.5 414.5 Z" fill="#FFFFFF" transform="matrix(1, 0, 0, 1, 0, -7.105427357601002e-15)"/><path d="M 931.400012 415.899994 A 2.2 2.2 0 0 1 929.200012 418.099994 A 2.2 2.2 0 0 1 927.000012 415.899994 A 2.2 2.2 0 0 1 929.200012 413.699994 A 2.2 2.2 0 0 1 931.400012 415.899994 Z" fill="#FFFFFF" transform="matrix(1, 0, 0, 1, 0, -7.105427357601002e-15)"/><path d="M 902.399976 441 A 3.3 3.3 0 0 1 899.099976 444.3 A 3.3 3.3 0 0 1 895.799976 441 A 3.3 3.3 0 0 1 899.099976 437.7 A 3.3 3.3 0 0 1 902.399976 441 Z" fill="#FFFFFF" transform="matrix(1, 0, 0, 1, 0, -7.105427357601002e-15)"/><path d="M 887.600024 466 A 4.7 4.7 0 0 1 882.900024 470.7 A 4.7 4.7 0 0 1 878.200025 466 A 4.7 4.7 0 0 1 882.900024 461.3 A 4.7 4.7 0 0 1 887.600024 466 Z" fill="#FFFFFF" transform="matrix(1, 0, 0, 1, 0, -7.105427357601002e-15)"/><path d="M 904.000024 481 A 1.1 1.1 0 0 1 902.900024 482.1 A 1.1 1.1 0 0 1 901.800024 481 A 1.1 1.1 0 0 1 902.900024 479.9 A 1.1 1.1 0 0 1 904.000024 481 Z" fill="#FFFFFF" transform="matrix(1, 0, 0, 1, 0, -7.105427357601002e-15)"/><path d="M 910.1 463.5 A 1.1 1.1 0 0 1 909 464.6 A 1.1 1.1 0 0 1 907.9 463.5 A 1.1 1.1 0 0 1 909 462.4 A 1.1 1.1 0 0 1 910.1 463.5 Z" fill="#FFFFFF" transform="matrix(1, 0, 0, 1, 0, -7.105427357601002e-15)"/><path d="M 922.6 452 A 1.6 1.6 0 0 1 921 453.6 A 1.6 1.6 0 0 1 919.4 452 A 1.6 1.6 0 0 1 921 450.4 A 1.6 1.6 0 0 1 922.6 452 Z" fill="#FFFFFF" transform="matrix(1, 0, 0, 1, 0, -7.105427357601002e-15)"/><path d="M 934.699988 479.100006 A 1.9 1.9 0 0 1 932.799988 481.000006 A 1.9 1.9 0 0 1 930.899988 479.100006 A 1.9 1.9 0 0 1 932.799988 477.200006 A 1.9 1.9 0 0 1 934.699988 479.100006 Z" fill="#FFFFFF" transform="matrix(1, 0, 0, 1, 0, -7.105427357601002e-15)"/><path d="M 950.6 462.700012 A 3.6 3.6 0 0 1 947 466.300012 A 3.6 3.6 0 0 1 943.4 462.700012 A 3.6 3.6 0 0 1 947 459.100012 A 3.6 3.6 0 0 1 950.6 462.700012 Z" fill="#FFFFFF" transform="matrix(1, 0, 0, 1, 0, -7.105427357601002e-15)"/><path d="M 944 441.299988 A 3 3 0 0 1 941 444.299988 A 3 3 0 0 1 938 441.299988 A 3 3 0 0 1 941 438.299988 A 3 3 0 0 1 944 441.299988 Z" fill="#FFFFFF" transform="matrix(1, 0, 0, 1, 0, -7.105427357601002e-15)"/><path d="M 956.600012 447.299988 A 1.4 1.4 0 0 1 955.200012 448.699988 A 1.4 1.4 0 0 1 953.800012 447.299988 A 1.4 1.4 0 0 1 955.200012 445.899988 A 1.4 1.4 0 0 1 956.600012 447.299988 Z" fill="#FFFFFF" transform="matrix(1, 0, 0, 1, 0, -7.105427357601002e-15)"/><path d="M 963.7 472.799988 A 2.2 2.2 0 0 1 961.5 474.999988 A 2.2 2.2 0 0 1 959.3 472.799988 A 2.2 2.2 0 0 1 961.5 470.599988 A 2.2 2.2 0 0 1 963.7 472.799988 Z" fill="#FFFFFF" transform="matrix(1, 0, 0, 1, 0, -7.105427357601002e-15)"/>
</svg>